<svg width="109" height="108" viewBox="0 0 109 108" fill="none" xmlns="http://www.w3.org/2000/svg">
<path d="M32.0155 80.5117C32.2817 80.4656 32.6826 80.4458 32.8601 80.4755C32.8962 80.4788 33.0934 80.548 33.1361 80.5579C33.4779 81.069 34.0694 81.0624 34.4834 80.7887C34.49 80.8316 34.4966 80.8777 34.4999 80.9239C34.7693 84.3991 34.7496 87.8777 34.5262 91.3562C34.3618 93.8819 34.2665 96.4108 34.1384 98.9364C34.1252 99.1903 34.099 99.4409 34.0759 99.7278C33.2741 99.7476 32.5676 99.9025 31.8216 99.6684C31.792 99.2925 31.7526 98.9364 31.746 98.5803C31.7197 97.2219 31.6704 95.8668 31.6935 94.5116C31.7526 91.0759 31.8709 87.6436 31.9169 84.2079C31.9301 82.9813 31.8972 81.7581 31.8545 80.5315C31.9071 80.5282 31.9629 80.5216 32.0155 80.5117Z" fill="white"/>
<path d="M91.1818 88.6561C89.6044 89.5562 88.0599 89.7508 86.3379 89.5035C86.9656 88.9397 87.3599 88.3099 87.5078 87.6373C87.9054 87.6505 88.2899 87.6175 88.6711 87.5384C88.7237 87.6208 88.7861 87.6933 88.8617 87.756C89.1739 88.0165 89.6504 88.0461 89.9823 87.7659C90.2518 87.5351 90.4785 87.2482 90.7118 86.9745C90.7545 86.9251 90.7973 86.8756 90.84 86.8262C91.6123 86.9745 92.0592 88.1549 91.1818 88.6561Z" fill="white"/>
<path d="M31.5406 78.0192C31.6129 78.194 31.6721 78.3786 31.7181 78.5699C31.6392 78.5798 31.5636 78.5929 31.4913 78.6061C30.9622 78.7018 30.6698 79.3381 30.8012 79.8228C30.8867 80.1261 31.0838 80.3339 31.3303 80.4394C30.7716 80.6933 29.9731 80.3536 29.8942 79.681C29.8811 79.5623 29.8909 79.4337 29.9271 79.2952C30.0651 78.7743 30.1308 78.2566 30.029 77.7884C30.1276 77.6895 30.2491 77.6137 30.3839 77.5675C30.8078 77.4257 31.3664 77.6005 31.5406 78.0192Z" fill="black"/>
<path d="M32.858 80.4758C32.6806 80.4461 32.2797 80.4659 32.0135 80.512C31.9609 80.5219 31.905 80.5285 31.8525 80.5318C31.8459 80.2944 31.836 80.0603 31.8262 79.8229V79.8196C31.9445 79.3778 32.0168 78.9459 32.0332 78.5271C32.7759 78.448 33.5941 78.4941 34.2021 78.8832C34.0706 79.1008 34.0509 79.3514 34.1462 79.6383C34.2678 80.0174 34.4256 80.3999 34.4814 80.789C34.0674 81.0627 33.4758 81.0693 33.1341 80.5582C33.0914 80.5483 32.8942 80.4791 32.858 80.4758Z" fill="white"/>
<path d="M2.52695 106.622C2.17533 106.583 1.83356 106.382 1.66597 105.979C-0.102011 101.765 1.99459 96.8164 2.0636 92.4773C2.15561 86.3511 2.06031 80.1952 2.06688 74.0625C2.06688 73.6602 2.26734 73.3832 2.53681 73.2349C2.52695 73.2612 2.52038 73.2843 2.51709 73.3107C2.46451 73.6239 2.67154 74.069 2.99359 74.2075C3.27621 74.3295 3.5884 74.412 3.8973 74.4416C3.94331 74.4449 3.9926 74.4515 4.03861 74.4515C4.03203 77.4586 3.97945 80.4623 3.95645 83.4693C3.93016 86.4599 4.16019 89.4933 4.03532 92.4773C3.86444 96.4899 1.9913 101.317 3.47009 105.221C3.25649 105.254 3.0396 105.326 2.85229 105.422C2.50395 105.597 2.35607 105.966 2.42179 106.335C2.43822 106.438 2.47437 106.533 2.52695 106.622Z" fill="#F5E828"/>
<path d="M31.8031 79.193C31.8097 79.4007 31.8196 79.6117 31.8261 79.8195V79.8228C31.744 80.1393 31.5567 80.3371 31.3299 80.4393C31.0835 80.3338 30.8863 80.1261 30.8008 79.8228C30.6694 79.3381 30.9619 78.7017 31.4909 78.6061C31.5632 78.5929 31.6388 78.5797 31.7177 78.5698C31.767 78.7743 31.7966 78.9853 31.8031 79.193Z" fill="black"/>
<path d="M31.825 79.8228C31.8348 80.0602 31.8446 80.2942 31.8512 80.5316C31.6677 80.5415 31.4874 80.5119 31.3301 80.4393C31.5562 80.3371 31.743 80.1393 31.825 79.8228Z" fill="black"/>
<path d="M34.7947 79.4994C35.1036 80.0269 34.8736 80.5281 34.4825 80.7886C34.4267 80.3995 34.2689 80.017 34.1473 79.6379C34.052 79.351 34.0718 79.1004 34.2032 78.8828C34.4365 79.0312 34.6403 79.2323 34.7947 79.4994Z" fill="black"/>
<path d="M85.3883 87.8383C85.6052 87.5844 85.9371 87.4294 86.3479 87.5086C86.7521 87.5844 87.1366 87.6306 87.5079 87.6371C87.36 88.3098 86.9657 88.9395 86.338 89.5034C86.1671 89.477 85.9963 89.4473 85.8221 89.4143C84.9841 89.2561 84.948 88.346 85.3883 87.8383Z" fill="black"/>
<path d="M32.0334 78.5269C32.017 78.9456 31.9449 79.3775 31.8269 79.8194C31.8204 79.6116 31.8105 79.4006 31.804 79.1929C31.7974 78.9852 31.7679 78.7741 31.7188 78.5697C31.8204 78.5532 31.9252 78.54 32.0334 78.5269Z" fill="#FCE2C4"/>
<path d="M29.8888 79.681C29.9972 81.0889 30.1484 82.4968 30.132 83.9014C30.0794 88.6461 29.9315 93.3907 29.8264 98.1354C29.7968 99.4477 29.8001 100.757 29.7705 102.069C29.7639 102.418 29.6851 102.765 29.6423 103.098C29.4485 103.17 29.3301 103.246 29.202 103.256C27.0528 103.457 24.9003 103.665 22.7479 103.843C21.0883 103.981 19.4255 104.074 17.7627 104.196C15.8764 104.337 13.9934 104.499 12.1072 104.631C9.27773 104.825 6.44503 105.003 3.61561 105.201C3.5696 105.205 3.52031 105.211 3.47101 105.221C1.99222 101.317 3.86536 96.4901 4.03624 92.4774C4.16112 89.4934 3.93108 86.46 3.95737 83.4695C3.98037 80.4624 4.03295 77.4587 4.03953 74.4517C4.39444 74.4747 4.75263 74.4583 5.11083 74.4583C8.79795 74.455 12.4851 74.4978 16.1623 74.8045C17.5951 74.9232 19.0279 75.0287 20.464 75.1474C22.2089 75.2891 23.9539 75.4507 25.7022 75.5826C26.8031 75.665 27.9039 75.6782 28.9194 76.2157C28.9851 76.3904 29.1034 76.5487 29.2841 76.6773C29.7146 76.9839 29.9414 77.3664 30.0301 77.7884C29.8461 77.9731 29.7343 78.2302 29.7508 78.5072C29.7574 78.6852 29.8264 78.86 29.8395 79.038C29.8527 79.2524 29.8691 79.4667 29.8888 79.681Z" fill="#F5E828"/>
<path d="M30.2804 74.9694C31.5587 75.8794 32.0911 77.1258 32.0352 78.5271C31.9268 78.5403 31.8216 78.5535 31.7198 78.57C31.6738 78.3787 31.6146 78.1941 31.5423 78.0193C31.3681 77.6006 30.8095 77.4258 30.3856 77.5676C30.2508 77.6138 30.1292 77.6896 30.0307 77.7885C29.9419 77.3665 29.7152 76.984 29.2847 76.6774C29.1039 76.5488 28.9856 76.3905 28.9199 76.2158C28.9364 76.2257 28.9528 76.2322 28.9692 76.2421C29.1532 76.3411 29.5049 76.2685 29.7185 76.1597C30.2114 75.8992 30.3133 75.342 30.0077 74.8837C29.9912 74.8606 29.9748 74.8375 29.9584 74.8145C30.0635 74.8408 30.172 74.8903 30.2804 74.9694Z" fill="#F5E828"/>
<path d="M2.99441 74.2078C2.67236 74.0693 2.46533 73.6242 2.51791 73.3109C2.5212 73.2846 2.52777 73.2615 2.53763 73.2351C3.11928 72.9153 4.04271 73.1889 4.03942 74.0627V74.4518C3.99341 74.4518 3.94412 74.4452 3.89811 74.4419C3.58921 74.4122 3.27702 74.3298 2.99441 74.2078Z" fill="black"/>
<path d="M4.07843 107.064C3.76624 107.084 3.44419 107.084 3.13529 107.048C2.8724 107.018 2.64893 106.846 2.52734 106.622C3.18787 106.701 3.88783 106.22 3.56578 105.455C3.53292 105.376 3.50335 105.3 3.47048 105.221C3.51978 105.211 3.56907 105.204 3.61508 105.201C6.4445 105.003 9.27721 104.825 12.1066 104.631C13.9929 104.499 15.8759 104.337 17.7622 104.196C19.425 104.074 21.0878 103.981 22.7474 103.843C24.8998 103.665 27.0523 103.457 29.2015 103.256C29.3296 103.246 29.4479 103.17 29.6418 103.098C29.6845 102.765 29.7634 102.418 29.77 102.069C29.7995 100.757 29.7963 99.4476 29.8258 98.1353C29.931 93.3906 30.0789 88.646 30.1315 83.9013C30.1479 82.4967 29.9967 81.0888 29.8883 79.6809H29.8948C29.9737 80.3535 30.7723 80.6932 31.3309 80.4393C31.4887 80.5118 31.6694 80.5415 31.8534 80.5316C31.8961 81.7582 31.929 82.9814 31.9159 84.208C31.8699 87.6436 31.7516 91.076 31.6924 94.5117C31.6694 95.8668 31.7187 97.222 31.745 98.5804C31.7516 98.9365 31.791 99.2926 31.8206 99.6685C32.5665 99.9026 33.2731 99.7476 34.0749 99.7278C34.0979 99.441 34.1242 99.1904 34.1373 98.9365C34.2655 96.4109 34.3608 93.8819 34.5251 91.3563C34.7486 87.8777 34.7683 84.3992 34.4988 80.924C34.4955 80.8778 34.489 80.8316 34.4824 80.7888C34.8734 80.5283 35.1035 80.0271 34.7946 79.4996C34.6401 79.2325 34.4364 79.0314 34.2031 78.883C34.2524 78.8039 34.3148 78.728 34.3937 78.6555C34.7256 78.3456 35.1002 78.3192 35.511 78.5269C36.0039 78.7808 36.2306 79.1962 36.2668 79.7238C36.3161 80.3931 36.372 81.0624 36.4081 81.7285C36.4245 82.0087 36.4377 82.2857 36.4442 82.566C36.5396 85.8203 36.6118 89.0713 36.2668 92.3224C36.1386 93.5324 36.1616 94.759 36.1255 95.9789C36.1189 96.19 36.1748 96.4076 36.2044 96.6516C36.786 96.8098 37.3282 96.7736 37.8573 96.7406C39.7699 96.6285 41.5904 96.9912 43.4241 97.5418C49.5825 99.4047 55.8394 100.882 62.1358 102.181C63.677 102.501 65.2117 102.88 66.766 103.098C68.3204 103.315 69.8978 103.421 71.4686 103.467C72.1226 103.487 72.8127 103.305 73.4403 103.084C74.837 102.59 76.2106 102.019 77.5875 101.472C80.808 100.196 84.012 98.8805 87.2522 97.6572C89.1024 96.9549 90.6962 95.9064 92.1191 94.5644C94.8467 91.9893 97.3902 89.2428 99.8384 86.4039C101.018 85.0356 102.181 83.654 103.338 82.2692C103.624 81.9296 103.864 81.5537 104.11 81.2108C103.67 80.1953 102.885 79.7963 101.958 79.6743C100.923 79.5358 99.8745 79.5952 98.915 80.0601C98.1099 80.4525 97.2949 80.8613 96.5653 81.379C94.3964 82.9122 92.5562 84.8081 90.8408 86.8259C90.6403 86.7864 90.4169 86.816 90.1901 86.9479C89.6775 87.2414 89.178 87.4326 88.6719 87.5381C88.5141 87.2809 88.4846 86.9512 88.6357 86.6512C88.7738 86.3709 88.9479 86.1006 89.1451 85.8599C91.1431 83.4529 93.3547 81.2669 95.9377 79.4963C97.7714 78.2401 99.776 77.5443 102.043 77.7587C103.325 77.8807 104.367 78.4247 105.238 79.3347C106.082 80.2217 106.398 81.6164 105.405 82.7704C104.994 83.2485 104.623 83.7628 104.209 84.2376C101.33 87.5381 98.4976 90.8815 95.402 93.9808C94.2256 95.1579 92.9702 96.2625 91.7215 97.3671C90.9755 98.0298 90.1047 98.5145 89.1812 98.8838C87.2588 99.652 85.3232 100.387 83.4008 101.152C81.3535 101.97 79.3128 102.801 77.272 103.632C76.5622 103.919 75.8524 104.202 75.1524 104.512C73.2892 105.336 71.3437 105.518 69.3359 105.343C67.6303 105.195 65.9346 104.96 64.2652 104.588C60.8443 103.82 57.4168 103.071 54.0156 102.224C49.9177 101.205 45.8362 100.097 41.7548 99.0124C40.1708 98.5903 37.5583 98.4551 36.1123 98.7881C36.1123 98.953 36.0729 99.1409 36.1189 99.3058C36.4048 100.348 35.741 100.918 35.0378 101.426C34.8077 101.591 34.4462 101.617 34.1439 101.627C33.4275 101.657 32.7078 101.637 32.0276 101.637C31.5872 102.105 31.699 102.629 31.6431 103.107C31.5051 104.308 30.9727 104.891 29.7963 105.063C29.4841 105.106 29.1686 105.115 28.8531 105.139C26.7894 105.303 24.7256 105.468 22.6619 105.627C21.0451 105.752 19.4283 105.857 17.8115 105.983C16.1059 106.118 14.4004 106.266 12.6981 106.405C11.4855 106.504 10.2729 106.606 9.06032 106.698C7.40078 106.827 5.73796 106.949 4.07843 107.064Z" fill="black"/>
<path d="M104.111 81.2107C103.864 81.5536 103.624 81.9295 103.338 82.2691C102.182 83.6539 101.018 85.0355 99.8384 86.4038C97.3902 89.2427 94.8467 91.9892 92.1192 94.5643C90.6962 95.9063 89.1024 96.9548 87.2523 97.6571C84.0121 98.8803 80.808 100.196 77.5876 101.472C76.2106 102.019 74.837 102.59 73.4404 103.084C72.8127 103.305 72.1226 103.487 71.4687 103.467C69.8978 103.421 68.3205 103.315 66.7661 103.097C65.2117 102.88 63.6771 102.501 62.1358 102.181C55.8395 100.882 49.5825 99.4046 43.4242 97.5417C41.5905 96.9911 39.7699 96.6284 37.8574 96.7405C37.3283 96.7734 36.7861 96.8097 36.2044 96.6514C36.1748 96.4075 36.119 96.1898 36.1255 95.9788C36.1617 94.7589 36.1387 93.5323 36.2668 92.3222C36.6119 89.0712 36.5396 85.8202 36.4443 82.5659C36.4377 82.2856 36.4246 82.0086 36.4081 81.7284L38.3207 81.613C38.3207 81.6888 38.3306 81.7679 38.347 81.8471C38.4423 82.279 38.8761 82.6186 39.3657 82.5395C40.4239 82.368 41.5116 82.3318 42.5172 81.8767C43.3782 81.4877 44.2819 81.1876 45.1232 80.7623C46.2043 80.2117 47.246 79.5753 48.2976 78.9686C49.3952 78.3389 50.5322 77.8278 51.7547 77.4717C53.8743 76.8551 56.0301 76.8419 58.1891 77.0002C60.7096 77.1881 63.0209 78.0058 65.0277 79.6017C65.5929 80.0534 66.1811 80.4688 66.7727 80.881C68.2285 81.8998 69.8223 82.6054 71.5639 82.9813C73.861 83.4726 76.1876 83.7067 78.5329 83.7265C79.9361 83.7397 81.313 83.9375 82.6702 84.2837C83.5586 84.5112 84.3801 84.9036 84.987 85.6026C85.7395 86.473 85.8053 87.2149 85.3386 87.7985C85.1645 88.0194 84.9147 88.2172 84.5959 88.392C83.9748 88.7382 83.2782 88.9657 82.5914 89.1635C79.8539 89.9384 77.064 89.8164 74.274 89.6284C72.2957 89.4965 70.3207 89.3317 68.3457 89.1866C66.5087 89.0514 64.6553 89.058 62.8555 88.5898C62.7241 88.5568 62.5893 88.5404 62.4546 88.5404C62.0734 88.5404 61.7251 88.7843 61.6265 89.1174C61.518 89.4932 61.5706 89.8526 61.8795 90.1032C62.0833 90.2714 62.333 90.4198 62.5828 90.4857C63.102 90.6209 63.6343 90.7396 64.1667 90.7824C66.2765 90.9605 68.3862 91.1122 70.4992 91.2572C72.747 91.4089 74.9915 91.5375 77.2392 91.6793C77.2425 91.6562 77.2425 91.6364 77.2425 91.6133C77.7387 91.6133 78.2349 91.6067 78.7312 91.6166C80.5057 91.6463 82.2145 91.2539 83.9036 90.7627C84.7712 90.5121 85.5993 90.156 86.2927 89.546C86.3091 89.5328 86.3256 89.5163 86.3387 89.5031C88.0607 89.7504 89.6052 89.5559 91.1826 88.6558C92.06 88.1546 91.6131 86.9742 90.8408 86.8258C92.5562 84.8079 94.3965 82.9121 96.5654 81.3789C97.2949 80.8612 98.1099 80.4524 98.915 80.06C99.8746 79.5951 100.923 79.5357 101.958 79.6742C102.885 79.7962 103.67 80.1952 104.111 81.2107Z" fill="white"/>
<path d="M90.8408 86.8258C90.798 86.8753 90.7553 86.9247 90.7126 86.9742C90.4793 87.2479 90.2525 87.5347 89.9831 87.7655C89.6512 88.0458 89.1747 88.0161 88.8625 87.7556C88.7869 87.693 88.7245 87.6204 88.6719 87.538C89.178 87.4325 89.6775 87.2413 90.1901 86.9478C90.4168 86.8159 90.6403 86.7863 90.8408 86.8258Z" fill="black"/>
<path d="M87.0424 85.1673C87.5354 86.0246 87.6865 86.8588 87.5091 87.6369C87.1377 87.6303 86.7532 87.5842 86.349 87.5083C85.9383 87.4292 85.6064 87.5842 85.3895 87.838L85.3402 87.7985C85.8068 87.2149 85.7411 86.473 84.9885 85.6025C84.3806 84.9035 83.5591 84.5112 82.6718 84.2837C81.3146 83.9375 79.9377 83.7396 78.5344 83.7264C76.1881 83.7067 73.8615 83.4726 71.5655 82.9813C69.8238 82.6054 68.23 81.8998 66.7742 80.881C66.1827 80.4688 65.5945 80.0534 65.0292 79.6017C63.0214 78.0058 60.7112 77.1881 58.1907 77.0002C56.0316 76.8419 53.8759 76.8551 51.7563 77.4717C50.5338 77.8278 49.3968 78.3388 48.2992 78.9686C47.2476 79.5753 46.2059 80.2116 45.1247 80.7623C44.2834 81.1876 43.3797 81.4877 42.5188 81.8767C41.5132 82.3317 40.4254 82.368 39.3673 82.5395C38.8776 82.6186 38.4439 82.279 38.3486 81.847C38.3321 81.7679 38.3223 81.6888 38.3223 81.6129C38.3223 81.2338 38.5326 80.9106 38.9302 80.7623C39.2621 80.6403 39.6269 80.548 39.9785 80.548C40.6719 80.5546 41.3061 80.3501 41.9437 80.116C43.6821 79.4764 45.3186 78.6257 46.8894 77.6464C48.4668 76.6639 50.1362 75.9253 51.9567 75.4934C54.2768 74.9427 56.6034 74.9724 58.9399 75.2032C60.1887 75.3252 61.421 75.5857 62.604 76.0638C63.7411 76.5221 64.8058 77.0958 65.7982 77.808C66.531 78.3355 67.2441 78.8862 67.9901 79.3939C69.5018 80.426 71.1777 81.0326 72.9819 81.3261C75.0324 81.6624 77.0929 81.8339 79.1665 81.8569C80.573 81.8734 81.9466 82.1273 83.2972 82.4768C84.3521 82.7505 85.3248 83.2418 86.1135 84.0166C86.4651 84.3595 86.8003 84.742 87.0435 85.1673H87.0424Z" fill="black"/>
<path d="M86.3381 89.5035C86.3249 89.5167 86.3085 89.5332 86.2921 89.5463C85.5987 90.1563 84.7705 90.5124 83.903 90.763C82.2139 91.2543 80.505 91.6467 78.7305 91.617C78.2343 91.6071 77.7381 91.6137 77.2418 91.6137C77.2418 91.6368 77.2418 91.6565 77.2386 91.6796C74.9908 91.5378 72.7463 91.4093 70.4986 91.2576C68.3855 91.1125 66.2758 90.9608 64.166 90.7828C63.6337 90.7399 63.1013 90.6212 62.5821 90.486C62.3323 90.4201 62.0826 90.2717 61.8788 90.1036C61.5699 89.853 61.5174 89.4936 61.6258 89.1177C61.7244 88.7847 62.0727 88.5407 62.4539 88.5407C62.5887 88.5407 62.7234 88.5572 62.8548 88.5902C64.6557 89.0584 66.5091 89.0518 68.345 89.1869C70.32 89.332 72.295 89.4969 74.2733 89.6288C77.0633 89.8167 79.8533 89.9387 82.5907 89.1639C83.2775 88.966 83.9742 88.7385 84.5953 88.3923C84.914 88.2176 85.1638 88.0197 85.338 87.7988L85.3873 87.8384C84.9469 88.3462 84.983 89.2562 85.821 89.4145C85.9952 89.4474 86.1661 89.4771 86.337 89.5035H86.3381Z" fill="black"/>
<path d="M30.0054 74.8836C30.311 75.3419 30.2091 75.8991 29.7162 76.1596C29.5026 76.2684 29.151 76.3409 28.9669 76.242C28.9505 76.2321 28.9341 76.2255 28.9176 76.2156C28.6449 75.5166 29.2331 74.6231 29.9561 74.8143C29.9725 74.8374 29.9889 74.8605 30.0054 74.8836Z" fill="black"/>
<path d="M30.0302 77.7886C30.1318 78.2568 30.0662 78.7744 29.9286 79.2954C29.8925 79.4339 29.8827 79.5625 29.8958 79.6812H29.8892C29.8696 79.4668 29.8532 79.2525 29.8401 79.0382C29.827 78.8602 29.7581 78.6854 29.7516 78.5074C29.7352 78.2304 29.8466 77.9732 30.0302 77.7886Z" fill="black"/>
<path d="M29.9572 74.8143C29.2342 74.6231 28.646 75.5166 28.9188 76.2156C27.9033 75.6782 26.8024 75.665 25.7016 75.5826C23.9533 75.4507 22.2083 75.2891 20.4634 75.1473C19.0273 75.0286 17.5945 74.9231 16.1617 74.8044C12.4844 74.4978 8.79733 74.4549 5.11021 74.4582C4.75201 74.4582 4.39381 74.4747 4.0389 74.4516V74.0626C4.04219 73.1888 3.11877 72.9151 2.53711 73.235C2.61598 72.9316 2.90516 72.6349 3.22721 72.5821C3.49011 72.5426 3.76286 72.5459 4.02905 72.5558C4.66 72.5788 5.28766 72.6184 5.91533 72.6514C5.91533 72.6349 5.91861 72.6184 5.91861 72.6019C8.29454 72.7536 10.6737 72.9118 13.0497 73.0602C15.1134 73.1888 17.1804 73.3042 19.2442 73.4361C21.5314 73.5845 23.8153 73.7493 26.1025 73.901C26.8222 73.9505 27.5418 73.9604 28.2582 74.023C28.9188 74.0791 29.5398 74.2472 29.9572 74.8143Z" fill="black"/>
<path d="M3.56506 105.455C3.88711 106.22 3.18715 106.702 2.52662 106.622C2.47404 106.533 2.4379 106.438 2.42147 106.336C2.35574 105.966 2.50362 105.597 2.85196 105.422C3.03927 105.327 3.25616 105.254 3.46976 105.221C3.50263 105.3 3.5322 105.376 3.56506 105.455Z" fill="black"/>
<path d="M96.9381 35.1557C95.6138 33.9984 94.7101 32.5575 94.4176 30.7869C93.9181 27.7271 95.9095 24.8981 97.993 23.721C98.338 23.5265 98.7455 23.4078 99.1366 23.3484C99.36 23.3155 99.6295 23.3847 99.8431 23.4935C99.6196 23.5595 99.3995 23.6419 99.1793 23.7441C98.3807 24.1068 98.6108 25.03 99.2056 25.396C97.5329 25.9466 96.7508 27.3084 96.3696 28.9207C95.7551 31.5222 97.8911 33.9489 99.6196 34.5556C100.454 34.849 101.312 34.8424 102.15 34.6083C104.73 33.883 106.619 30.4803 105.87 27.9052C105.558 26.8237 104.986 25.9796 104.043 25.5213C104.345 25.0927 104.358 24.4365 103.787 24.0738C103.382 23.8166 102.965 23.6221 102.541 23.4902C102.679 23.3814 102.85 23.3056 103.034 23.2792C103.629 23.1902 104.201 23.2759 104.736 23.5628C106.567 24.5453 107.658 26.062 107.97 28.1228C108.026 28.4789 108.016 28.8449 108.042 29.3724C107.838 32.1124 106.593 34.4171 104.066 35.8909C101.539 37.3648 98.9985 36.9592 96.9381 35.1557Z" fill="black"/>
<path d="M35.6007 24.12C36.4584 24.2124 37.3128 24.2585 38.1442 24.0079C39.6854 23.543 40.6877 22.4912 41.1544 20.9712C41.828 18.7786 41.529 16.6816 40.3755 14.7132C39.8826 13.8757 39.0906 13.3382 38.2691 12.8535C38.039 12.7184 37.7827 12.6194 37.5691 12.4579C37.2733 12.2337 37.1583 11.7984 37.2799 11.4852C37.4179 11.1291 37.6513 10.8258 38.0489 10.8225C38.3972 10.8192 38.785 10.8554 39.084 11.0137C39.4882 11.2247 39.876 11.4555 40.2408 11.716C41.0393 12.2864 41.7262 12.9887 42.2257 13.8922C43.0505 15.3858 43.4317 16.9948 43.435 18.5214C43.435 20.1172 43.1688 21.4691 42.505 22.7418C42.2257 23.2793 41.8905 23.7507 41.5093 24.1563C40.6746 25.0498 39.6033 25.6301 38.3479 25.9236C36.3006 26.405 34.3223 26.1016 32.4854 25.0498C32.3473 24.9707 32.2126 24.885 32.0811 24.796C29.4653 23.0353 28.1344 19.4776 29.2682 16.2398C29.6756 15.0791 30.231 14.0076 31.0821 13.1008C31.9004 12.2304 32.9388 11.8611 34.0792 11.7127C34.2862 11.6863 34.5228 11.7622 34.7265 11.8347C35.0519 11.9534 35.2293 12.2073 35.2688 12.5502C35.3148 12.9393 35.2096 13.2921 34.8514 13.4734C34.5787 13.6086 34.2632 13.7174 33.9609 13.7306C33.2247 13.7702 32.6825 14.1328 32.2389 14.6736C30.6549 16.6189 30.1653 19.4941 31.7887 21.8417C32.7121 23.177 33.9773 23.9453 35.6007 24.12Z" fill="black"/>
<path d="M73.9627 61.5692C73.9824 61.345 74.0482 61.1274 74.1007 60.9098C74.85 57.7511 75.6913 54.6221 76.8217 51.5755C76.9795 51.1567 77.1142 50.7281 77.3179 50.128C76.7494 50.0225 76.3156 49.9269 75.8786 49.8609C73.4369 49.5048 70.9953 49.1454 68.6555 48.3014C68.11 48.1035 67.525 48.0145 66.9664 47.8463C66.6739 47.7606 66.4767 47.576 66.3946 47.3584C66.3453 47.2232 66.342 47.0748 66.388 46.9297C66.5129 46.5374 66.8941 46.2835 67.341 46.3692C67.7814 46.4483 68.2184 46.567 68.6358 46.7253C71.1366 47.6683 73.7623 48.031 76.3781 48.4299C76.9959 48.5256 77.6334 48.4728 78.2644 48.5091C79.0498 48.5519 79.3488 49.0102 79.1056 49.7917C78.9972 50.1379 78.8723 50.4742 78.7409 50.8105C77.3607 54.2462 76.3945 57.8104 75.5434 61.4077C75.5007 61.5824 75.4875 61.7671 75.4284 61.9352C75.3002 62.2913 74.8894 62.5551 74.597 62.4892C74.3932 62.4463 74.219 62.3111 74.104 62.1298C73.9989 61.9682 73.9463 61.7704 73.9627 61.5692Z" fill="black"/>
<path d="M42.2251 13.8921C41.7256 12.9887 41.0388 12.2864 40.2402 11.716L42.0049 11.2445C42.0082 11.2676 42.0148 11.2906 42.0246 11.3137C42.1232 11.5907 42.4716 11.8281 42.7739 11.7687C44.2724 11.4753 45.7841 11.2313 47.2596 10.8455C49.1721 10.3444 51.0518 9.72778 53.1123 9.10791C53.1879 9.37498 53.2832 9.58271 53.2963 9.79373C53.4245 11.7391 53.7991 13.6448 54.1869 15.5473C54.4991 17.097 54.8441 18.6368 55.1958 20.1799C55.2483 20.4041 55.3338 20.6283 55.4389 20.8393L53.7893 21.8713C53.694 21.8713 53.5921 21.8845 53.4869 21.9175C53.2306 21.9966 52.994 22.1318 52.7442 22.234C52.2053 22.4615 51.6828 22.7451 51.1241 22.9001C48.5609 23.609 45.9681 24.1662 43.2865 24.1365C42.9711 24.1332 42.6523 24.1266 42.3434 24.1761C42.1988 24.1991 42.0739 24.2585 41.9754 24.3442L41.5087 24.1563C41.8899 23.7507 42.2251 23.2792 42.5044 22.7418C43.1682 21.4691 43.4344 20.1172 43.4344 18.5214C43.4311 16.9948 43.0499 15.3858 42.2251 13.8921Z" fill="white"/>
<path d="M75.7092 66.5051C76.2416 66.5248 76.774 66.4787 77.372 66.4622C77.5824 65.8621 77.7927 65.3214 77.9668 64.7674C79.4128 60.1151 80.8521 55.4562 82.2981 50.8038C82.5938 49.8542 82.9192 48.9178 83.2182 47.9716C83.3529 47.5462 83.4548 47.1143 83.5698 46.6824C83.4219 46.5637 83.3299 46.4318 83.2182 46.412C80.3099 45.8218 77.3819 45.3206 74.4966 44.6414C70.7339 43.761 66.9712 42.851 63.2677 41.7498C59.9124 40.754 56.6262 39.5044 53.3236 38.324C50.0604 37.1601 46.8005 35.9995 43.4453 35.1323C43.0115 35.0202 42.5613 34.9707 42.1242 34.8685C42.0092 34.8421 41.8942 34.8125 41.7792 34.7795C41.9008 34.4663 41.8613 34.1003 41.5491 33.7903C41.3585 33.5991 41.1515 33.3914 40.9215 33.2034C41.0858 32.9759 41.3322 32.8177 41.605 32.8078C41.9139 32.7979 42.2294 32.8539 42.5317 32.9232C44.9536 33.454 47.2934 34.2585 49.6266 35.0696C53.1527 36.2929 56.6591 37.5755 60.1721 38.8383C64.4934 40.3913 68.9462 41.4937 73.4155 42.5147C76.35 43.1906 79.3175 43.7149 82.2751 44.2886C82.8008 44.3875 83.3464 44.4007 83.882 44.4502C84.9172 44.5491 85.7124 45.4558 85.5744 46.4878C85.4988 47.0648 85.2984 47.6286 85.1176 48.1826C84.2895 50.7148 83.3989 53.224 82.6234 55.7694C81.6605 58.9215 80.7864 62.1 79.8761 65.2653C79.7513 65.6973 79.6362 66.1358 79.4982 66.5644C79.1137 67.7514 78.1476 68.5427 76.9021 68.5196C75.5548 68.4933 74.1976 68.4174 72.8667 68.2196C69.4852 67.7217 66.1234 67.0986 62.8437 66.116C61.3354 65.6643 59.8303 65.1928 58.3614 64.6323C54.6184 63.2046 50.8129 61.9813 46.9812 60.824C43.0214 59.6271 39.0845 58.3511 35.1476 57.0949C34.2866 56.8179 33.4486 56.4981 32.5219 56.564C32.1342 56.5937 31.8417 56.386 31.5919 56.0991C30.6357 54.9979 30.5864 54.8396 31.053 53.4284C32.2032 49.9565 33.3533 46.4878 34.5397 43.0291C35.3284 40.7243 36.025 38.3899 36.6165 36.0258C36.7348 35.5444 36.8564 35.0565 37.0438 34.6014C37.2048 34.2091 37.5564 33.9783 37.9113 33.9684C37.7831 34.4564 38.1545 34.9872 38.6178 35.1125C38.7164 35.1389 38.815 35.1521 38.907 35.1488C38.9005 35.2048 38.884 35.2642 38.8676 35.3268C38.1348 37.7931 37.425 40.266 36.6428 42.7158C35.5485 46.1548 34.3984 49.5773 33.2745 53.0097C33.1365 53.435 33.0116 53.8669 32.8604 54.3648C35.3119 55.1594 37.6123 55.9178 39.9258 56.6465C43.9546 57.9126 48.0032 59.1259 52.0223 60.4283C54.7597 61.312 57.4642 62.3011 60.1753 63.2573C63.5798 64.4575 67.0665 65.2983 70.6189 65.9083C72.308 66.1984 73.9971 66.4523 75.7092 66.5051Z" fill="black"/>
<path d="M99.206 25.3961C98.6112 25.0301 98.3812 24.1069 99.1797 23.7442C99.3999 23.642 99.6201 23.5596 99.8435 23.4937C99.8633 23.5035 99.883 23.5134 99.8994 23.5233C100.514 23.8761 100.527 24.7136 99.9421 25.0961C99.791 25.195 99.6201 25.2708 99.4492 25.317C99.367 25.3401 99.2849 25.3632 99.206 25.3961Z" fill="black"/>
<path d="M38.8666 35.3273C38.883 35.2646 38.8994 35.2053 38.906 35.1492C39.2149 35.1393 39.4844 34.9778 39.6651 34.7305C39.836 34.8657 39.9871 35.0239 40.1547 35.1888C40.7463 35.7757 41.5514 35.3767 41.7781 34.7799C41.8931 34.8129 42.0082 34.8426 42.1232 34.869C42.5602 34.9712 43.0105 35.0206 43.4442 35.1327C46.7994 35.9999 50.0594 37.1605 53.3226 38.3244C56.6252 39.5048 59.9114 40.7544 63.2666 41.7502C66.9702 42.8514 70.7329 43.7615 74.4956 44.6418C77.3809 45.321 80.3089 45.8222 83.2172 46.4124C83.3289 46.4322 83.4209 46.5641 83.5688 46.6828C83.4538 47.1147 83.3519 47.5466 83.2172 47.972C82.9181 48.9183 82.5928 49.8547 82.297 50.8043C80.8511 55.4566 79.4117 60.1155 77.9658 64.7679C77.7916 65.3218 77.5813 65.8625 77.371 66.4626C76.7729 66.4791 76.2405 66.5253 75.7082 66.5055C73.9961 66.4527 72.307 66.1989 70.6179 65.9087C67.0655 65.2987 63.5788 64.4579 60.1743 63.2578C57.4632 62.3016 54.7586 61.3124 52.0212 60.4288C48.0022 59.1264 43.9536 57.913 39.9247 56.6469C37.6112 55.9182 35.3109 55.1599 32.8594 54.3652C33.0105 53.8674 33.1354 53.4354 33.2734 53.0101C34.3973 49.5777 35.5475 46.1552 36.6418 42.7163C37.4239 40.2665 38.1337 37.7936 38.8666 35.3273ZM74.1045 62.1301C74.2195 62.3115 74.3937 62.4467 74.5974 62.4895C74.8899 62.5555 75.3007 62.2917 75.4288 61.9356C75.488 61.7674 75.5012 61.5828 75.5439 61.408C76.395 57.8108 77.3611 54.2465 78.7413 50.8109C78.8728 50.4746 78.9977 50.1382 79.1061 49.792C79.3493 49.0106 79.0502 48.5523 78.2648 48.5094C77.6339 48.4732 76.9964 48.5259 76.3786 48.4303C73.7627 48.0313 71.1371 47.6686 68.6363 46.7256C68.2189 46.5674 67.7819 46.4487 67.3415 46.3695C66.8946 46.2838 66.5134 46.5377 66.3885 46.9301C66.3425 47.0751 66.3458 47.2235 66.3951 47.3587L65.005 47.5598C64.8046 46.9762 64.5285 46.4091 64.1769 45.8585C63.9403 45.4892 63.6117 45.1562 63.26 44.8957C62.8591 44.599 62.3826 44.7133 62.0474 45.0836C61.7517 45.4068 61.7057 45.8057 61.9456 46.2047C62.0836 46.4355 62.2775 46.6333 62.4221 46.8608C63.1746 48.0412 63.5492 49.3139 63.3553 50.7251C63.145 52.2287 62.6652 53.6333 61.6564 54.7873C61.2193 55.2885 60.6804 55.7204 60.1283 56.1029C59.5696 56.4919 58.9124 56.6073 58.219 56.6733C56.2966 56.8513 53.408 55.1665 52.6719 52.6804C52.6325 52.5518 52.5865 52.4232 52.5634 52.2913C52.0639 49.2744 53.3028 47.0719 55.9121 45.6969C56.5792 45.3441 57.2726 45.2386 57.9955 45.509C58.2091 45.5881 58.4162 45.687 58.6331 45.7299C59.1589 45.8387 59.6715 45.542 59.8128 45.0705C59.9475 44.6319 59.7734 44.1275 59.3232 43.9296C58.4129 43.5241 57.4796 43.2504 56.4477 43.501C55.7774 43.6626 55.1595 43.9098 54.591 44.2297L54.1441 43.0823C54.4103 43.0823 54.637 42.9504 54.7652 42.7163C54.9427 42.3931 54.8704 42.0436 54.5385 41.7601C54.3709 41.6117 54.1835 41.4798 53.9831 41.3809C53.5427 41.1666 53.0958 40.9589 52.639 40.7775C49.2542 39.4356 45.738 38.5453 42.1988 37.7243C42.0246 37.6837 41.8471 37.6683 41.8011 37.6617C41.6237 37.6617 41.5777 37.6584 41.5317 37.6617C41.0847 37.6946 40.7331 37.9914 40.6838 38.3838C40.6444 38.6959 40.8448 38.974 41.1899 39.1157L40.6937 40.3423C40.4406 40.3423 40.1876 40.4544 40.0463 40.6621C39.9214 40.8468 39.8196 41.0545 39.7407 41.2622C38.7022 44.0022 37.6638 46.7454 36.6352 49.492C36.5103 49.8283 36.4348 50.1844 36.3625 50.4383C36.3066 51.0087 36.5498 51.3879 36.9507 51.4571C37 51.467 37.046 51.4703 37.092 51.4703L38.229 52.1363C38.2027 52.1825 38.1797 52.2287 38.1633 52.2781C38.0384 52.6375 38.2685 53.0233 38.6464 53.0991C39.3923 53.2541 40.1482 53.353 40.8941 53.508C42.9217 53.9267 44.8442 54.6686 46.7699 55.4072C47.7327 55.7775 48.712 56.0996 49.688 56.4293C49.8951 56.5018 50.1218 56.5546 50.3387 56.5612C50.687 56.5744 51.0551 56.2512 51.1175 55.9248C51.1471 55.7534 51.0715 55.539 50.9302 55.3742L51.9194 55.3643C53.477 57.4712 56.1126 58.7109 58.0448 58.5494C58.1796 58.5593 58.311 58.5659 58.4425 58.5659L59.8884 59.0868C59.7865 59.3506 59.8457 59.6968 60.0626 59.8683C60.2762 60.0298 60.5161 60.1518 60.756 60.2771C62.8 61.3322 64.9722 62.0378 67.1969 62.5917C68.3307 62.8753 69.4578 63.1918 70.6409 63.1918C71.0878 63.1654 71.538 63.1654 71.9816 63.1094C72.2741 63.0698 72.5271 62.6972 72.5008 62.4104C72.4943 62.3378 72.4778 62.2686 72.4548 62.206L74.1045 62.1301Z" fill="white"/>
<path d="M32.0808 24.7958L31.6174 25.7059C31.5353 25.7125 31.4005 25.7125 31.2658 25.7322C29.1791 26.0092 27.0825 26.2334 25.0089 26.5862C23.4676 26.85 21.9527 27.2654 20.4312 27.6446C20.0927 27.727 19.7674 27.9117 19.4683 28.0996C19.4059 28.1392 19.35 28.1952 19.3073 28.2612L18.2787 28.1524C18.3116 28.0469 18.3247 27.9282 18.3149 27.8029C18.2952 27.5358 18.2262 27.272 18.1867 27.005C18.0848 26.2895 17.9731 25.5773 17.8942 24.8585C17.6971 23.022 17.5196 21.1821 17.3257 19.3423C17.2633 18.7125 17.1976 18.0861 17.1056 17.4596C17.0596 17.1431 16.7539 16.9353 16.4155 16.9386C16.3202 16.9419 16.2281 16.9551 16.146 16.9881L15.8535 15.6791C15.8995 15.6791 15.9455 15.6758 15.9915 15.6725C16.0803 15.6659 16.169 15.6428 16.2544 15.6132C18.1703 14.9636 20.1354 14.4822 22.1269 14.1492C23.9869 13.836 25.8633 13.6151 27.7299 13.3546C27.7364 13.3876 27.7397 13.4205 27.743 13.4535C28.1472 13.4535 28.5514 13.4667 28.9556 13.4469C29.2185 13.4337 29.4617 13.2854 29.6096 13.0908L31.0818 13.1007C30.2307 14.0074 29.6753 15.079 29.2678 16.2396C28.1341 19.4775 29.465 23.0351 32.0808 24.7958Z" fill="white"/>
<path d="M60.6194 23.5396C60.3204 23.7408 60.0772 23.9485 59.8044 24.0804C59.0749 24.4332 58.3454 24.7959 57.5862 25.0761C52.2034 27.0775 46.6498 28.3502 40.9449 28.9503C38.661 29.191 36.3935 29.5273 34.1359 29.9461C31.4806 30.4373 28.832 30.9517 26.1701 31.3902C22.667 31.9705 19.1541 32.4882 15.5196 33.052C15.4341 32.7553 15.3355 32.5014 15.2928 32.2376C14.9905 30.3219 14.7144 28.3997 14.4088 26.4807C13.86 23.0483 13.2981 19.616 12.7329 16.1836C12.6146 15.4648 12.4798 14.7493 12.3418 14.0371C12.493 14.0272 12.6376 13.9844 12.7591 13.9118C13.2586 13.6184 13.3375 13.0513 13.1141 12.56C13.0253 12.3622 12.9563 12.161 12.8972 11.9533C13.3704 11.9104 13.8403 11.9005 14.3004 12.0324C14.9248 12.2138 15.3651 11.8049 15.4867 11.3136C15.8416 11.2114 16.1998 11.1059 16.5613 11.0301C20.7052 10.1596 24.9017 9.65845 29.1014 9.14409C31.3328 8.86713 33.5772 8.64292 35.7856 8.23077C38.8779 7.65376 41.9603 6.99103 45.0165 6.24257C49.0323 5.26 53.0184 4.15874 57.0769 3.09375C57.1327 3.21245 57.2741 3.40369 57.3102 3.61471C58.4177 10.2454 59.5152 16.8793 60.6194 23.5396ZM56.2553 21.3239C56.5609 21.2646 56.8337 20.9645 56.8238 20.6546C56.8206 20.4337 56.7647 20.2128 56.7121 19.9951C55.7591 16.177 55.0099 12.3259 54.6812 8.39893C54.6615 8.17472 54.6418 7.94392 54.5794 7.7296C54.3953 7.11632 53.9123 6.89541 53.3208 7.15589C52.6602 7.44274 52.0293 7.80873 51.3523 8.04283C48.8844 8.8968 46.4 9.69143 43.7908 10.0014C43.3077 10.0574 42.8246 10.2091 42.3645 10.3805C42.0491 10.4992 41.9176 10.9048 42.0064 11.2444L40.2417 11.7159C39.8769 11.4554 39.4891 11.2246 39.0849 11.0136C38.7859 10.8553 38.3981 10.8191 38.0498 10.8224C37.6521 10.8257 37.4188 11.129 37.2808 11.4851C37.1592 11.7983 37.2742 12.2336 37.57 12.4578C37.7836 12.6193 38.0399 12.7182 38.2699 12.8534C39.0915 13.3381 39.8835 13.8756 40.3764 14.713C41.5299 16.6815 41.8289 18.7785 41.1552 20.9711C40.6886 22.4911 39.6863 23.5429 38.1451 24.0078C37.3137 24.2584 36.4592 24.2122 35.6015 24.1199C33.9782 23.9452 32.713 23.1769 31.7895 21.8416C30.1662 19.494 30.6558 16.6188 32.2398 14.6735C32.6834 14.1327 33.2256 13.7701 33.9617 13.7305C34.2641 13.7173 34.5795 13.6085 34.8523 13.4733C35.2105 13.292 35.3156 12.9392 35.2696 12.5501C35.2302 12.2072 35.0527 11.9533 34.7274 11.8346C34.5237 11.7621 34.2871 11.6862 34.08 11.7126C32.9397 11.861 31.9013 12.2303 31.083 13.1007L29.6108 13.0908C29.6765 13.0051 29.7225 12.9062 29.739 12.8073C29.7915 12.5138 29.5056 12.0918 29.154 11.983C28.9404 11.9203 28.7104 11.8874 28.4902 11.8874C27.9513 11.8939 27.4058 11.8841 26.8734 11.9566C25.181 12.1874 23.482 12.3951 21.8093 12.7248C19.8705 13.1106 17.9546 13.6019 16.0388 14.0833C15.7627 14.1525 15.4604 14.3767 15.306 14.6174C15.1909 14.7988 15.2271 15.1417 15.306 15.3758C15.3914 15.6132 15.6149 15.6791 15.8547 15.6791L16.1472 16.9881C15.8942 17.0804 15.7003 17.298 15.6773 17.5882C15.6411 18.0333 15.6707 18.485 15.6707 18.9334H15.7397C15.8547 20.1007 15.9599 21.2679 16.0848 22.4351C16.2524 23.9584 16.4265 25.4817 16.6237 27.005C16.673 27.4039 16.7847 27.7996 16.9195 28.1821C17.0509 28.5546 17.4387 28.7327 17.787 28.6404C18.0236 28.5777 18.2044 28.3964 18.28 28.1524L19.3085 28.2612C19.1771 28.4623 19.1508 28.7624 19.2954 28.9404C19.4466 29.1284 19.7062 29.2635 19.9428 29.3361C20.0907 29.3789 20.2911 29.28 20.4587 29.2174C22.5717 28.4162 24.7768 28.07 27.0114 27.8326C28.3916 27.6842 29.7685 27.5028 31.1455 27.3149C31.4511 27.272 31.7567 27.1698 32.0393 27.0478C32.3581 26.9094 32.5125 26.5763 32.4632 26.2796C32.4008 25.9235 32.1083 25.7092 31.6187 25.7059L32.082 24.7959C32.2135 24.8849 32.3482 24.9706 32.4862 25.0497C34.3232 26.1015 36.3015 26.4049 38.3488 25.9235C39.6041 25.63 40.6754 25.0497 41.5101 24.1562L41.9768 24.3441C41.7993 24.4892 41.6975 24.7101 41.7073 24.9343C41.7172 25.3102 41.9768 25.6136 42.381 25.6465C42.7852 25.6795 43.1927 25.6531 43.5969 25.6531C46.4362 25.5015 49.2261 25.0431 51.9471 24.1991C52.5025 24.0276 53.0316 23.7638 53.5672 23.5297C53.771 23.4407 53.9681 23.3253 54.1489 23.1934C54.4808 22.9494 54.5761 22.5834 54.4183 22.2405C54.3132 22.0064 54.0766 21.8712 53.7907 21.8712L55.4404 20.8392C55.4765 20.9085 55.5126 20.9777 55.5521 21.0436C55.6967 21.2942 55.9629 21.38 56.2553 21.3239Z" fill="white"/>
<path d="M105.87 27.9053C106.619 30.4804 104.73 33.8831 102.15 34.6084C101.312 34.8425 100.454 34.8491 99.6196 34.5557C97.8911 33.949 95.7551 31.5223 96.3696 28.9208C96.7508 27.3085 97.5329 25.9467 99.2056 25.3961C99.4718 25.5643 99.8168 25.6137 100.172 25.4521C101.085 25.0367 101.982 25.2675 102.794 25.7819C103.297 26.1017 103.78 25.8973 104.043 25.5214C104.986 25.9797 105.558 26.8238 105.87 27.9053Z" fill="white"/>
<path d="M77.3174 50.128C77.1136 50.7281 76.9789 51.1568 76.8211 51.5755C75.6907 54.6221 74.8494 57.7511 74.1002 60.9099C74.0476 61.1275 73.9819 61.3451 73.9621 61.5693C73.9457 61.7704 73.9983 61.9682 74.1035 62.1298L72.4538 62.2056C72.3881 62.0144 72.25 61.8693 72.0397 61.8067C71.8294 61.7407 71.5994 61.7111 71.3792 61.7012C67.8662 61.5462 64.603 60.4779 61.4614 58.9711C61.2182 58.8557 60.9816 58.7238 60.7286 58.6381C60.4526 58.5425 60.0746 58.7337 59.9268 59.0041C59.9103 59.0305 59.9005 59.0568 59.8873 59.0865L58.4414 58.5655C59.6474 58.5655 60.7549 58.1072 61.7605 57.3522C63.7815 55.8322 64.8232 53.7451 65.2636 51.2985C65.5035 49.983 65.4114 48.7366 65.004 47.5595L66.394 47.3584C66.4762 47.576 66.6733 47.7607 66.9658 47.8464C67.5245 48.0145 68.1094 48.1036 68.6549 48.3014C70.9947 49.1455 73.4364 49.5049 75.878 49.861C76.3151 49.9269 76.7488 50.0225 77.3174 50.128Z" fill="white"/>
<path d="M54.1439 43.0818L54.5908 44.2292C53.6444 44.76 52.8327 45.4887 52.1328 46.3625C50.5258 48.3704 50.1577 50.6884 50.8248 53.1415C51.045 53.9559 51.4295 54.7044 51.9191 55.3638L50.93 55.3737C50.8544 55.288 50.7624 55.2154 50.6605 55.166C50.5028 55.0901 50.3221 55.0572 50.1545 54.9978C49.2245 54.678 48.2879 54.368 47.3612 54.0284C45.4289 53.3129 43.4966 52.5876 41.4822 52.1292C40.7395 51.9611 39.9902 51.8325 39.3494 51.7072C39.0109 51.7369 38.7612 51.7039 38.5739 51.7962C38.4391 51.8611 38.3143 51.9941 38.2288 52.1358L37.0918 51.4698C37.3974 51.4698 37.6537 51.2852 37.8049 50.9489C37.8411 50.8664 37.8706 50.784 37.8969 50.695C38.5936 48.166 39.655 45.769 40.5817 43.3257C40.8381 42.6498 41.124 41.9871 41.3737 41.3112C41.515 40.9221 41.3409 40.5396 41.009 40.4011C40.9104 40.3616 40.8019 40.3418 40.6935 40.3418L41.1897 39.1152C41.2653 39.1449 41.3441 39.168 41.4296 39.1845C41.4723 39.1944 41.5183 39.1911 41.5643 39.201C42.7934 39.445 44.0388 39.6296 45.2482 39.9461C48.1499 40.7144 51.0253 41.5782 53.7101 42.9697C53.858 43.0455 54.0059 43.0818 54.1439 43.0818Z" fill="white"/>
<path d="M103.785 24.0738C104.357 24.4365 104.344 25.0927 104.042 25.5213C103.772 25.3861 103.47 25.2872 103.135 25.2213C103.046 25.2048 102.954 25.1982 102.868 25.1718C102.382 25.0234 102.083 24.608 102.142 24.1728C102.178 23.9024 102.326 23.6584 102.54 23.4902C102.964 23.6221 103.381 23.8167 103.785 24.0738Z" fill="black"/>
<path d="M103.135 25.221C103.471 25.287 103.773 25.3859 104.042 25.5211C103.779 25.8969 103.296 26.1014 102.794 25.7815C101.982 25.2672 101.085 25.0364 100.171 25.4518C99.8163 25.6134 99.4713 25.5639 99.2051 25.3958C99.2839 25.3628 99.3661 25.3397 99.4483 25.3166C99.6191 25.2705 99.79 25.1946 99.9412 25.0957C100.526 24.7133 100.513 23.8758 99.8985 23.523C99.882 23.5131 99.8623 23.5032 99.8426 23.4933C100.75 23.2163 101.66 23.2163 102.541 23.49C102.327 23.6582 102.179 23.9021 102.143 24.1725C102.084 24.6077 102.383 25.0232 102.869 25.1716C102.955 25.1979 103.047 25.2045 103.135 25.221Z" fill="white"/>
<path d="M89.6027 25.5475C90.1581 29.6591 87.4338 33.2662 83.4017 34.2785C82.843 34.4202 82.2416 34.3939 81.6633 34.4466C77.756 34.4697 75.0941 31.4462 74.5782 28.7029C74.1181 26.2498 74.7359 24.0341 76.3067 22.1283C77.7001 20.4369 79.5042 19.4048 81.6961 19.0883C82.6557 18.9498 83.6153 19.0125 84.4927 19.3356C87.3878 20.3907 89.1854 22.4284 89.6027 25.5475ZM85.9517 30.7142C87.4995 29.1184 88.0812 27.2159 87.4733 25.0035C87.0395 23.4274 86.0766 22.2965 84.6504 21.5678C83.3918 20.9215 82.097 20.7831 80.8056 21.5282C80.6577 21.6107 80.4474 21.5711 80.283 21.6271C79.9084 21.759 79.5042 21.8612 79.1756 22.0723C77.8808 22.9031 77.033 24.0737 76.5696 25.5574C75.4326 29.1942 78.308 32.6299 81.5187 32.5145C83.4082 32.5342 84.818 31.8814 85.9517 30.7142Z" fill="black"/>
<path d="M87.4733 25.0038C88.0813 27.2162 87.4996 29.1187 85.9518 30.7145C84.8181 31.8817 83.4083 32.5346 81.5187 32.5148C78.3081 32.6302 75.4327 29.1945 76.5697 25.5577C77.033 24.074 77.8809 22.9035 79.1757 22.0726C79.5043 21.8616 79.9085 21.7593 80.2831 21.6275C80.4474 21.5714 80.6577 21.611 80.8056 21.5285C82.0971 20.7834 83.3919 20.9219 84.6505 21.5681C86.0767 22.2968 87.0395 23.4277 87.4733 25.0038Z" fill="#DCDDDD"/>
<path d="M76.3298 3.66089C78.2982 5.88649 77.8151 10.3938 74.5749 11.9962C73.8553 12.3523 73.4018 12.4314 72.3535 12.4215C69.7179 12.5765 67.1941 10.1333 67.0528 7.49882C66.9575 5.72163 67.7298 4.27417 69.133 3.1828C69.3433 3.02124 69.6456 2.96518 69.8264 2.78384C70.7498 1.85073 71.9 1.79798 73.083 1.92327C74.3876 2.06175 75.4622 2.67833 76.3298 3.66089ZM73.2999 10.3608C74.4205 10.0278 75.5476 8.59019 75.5082 6.98116C75.4819 5.86671 75.0416 4.95998 74.0886 4.37638C73.1882 3.82575 72.2582 3.66749 71.361 4.44232C71.2394 4.54783 71.0193 4.53465 70.8517 4.5907C69.7705 4.9369 69.0245 5.96563 68.9917 7.11964C68.9391 8.9331 71.0061 11.0367 73.2999 10.3608Z" fill="black"/>
<path d="M75.5078 6.98108C75.5472 8.59011 74.42 10.0277 73.2994 10.3607C71.0057 11.0366 68.9386 8.93302 68.9912 7.11956C69.0241 5.96555 69.77 4.93682 70.8512 4.59062C71.0188 4.53457 71.239 4.54775 71.3606 4.44224C72.2577 3.6674 73.1877 3.82567 74.0881 4.3763C75.0411 4.9599 75.4815 5.86663 75.5078 6.98108Z" fill="#F5E828"/>
<path d="M72.5007 62.4102C72.527 62.6971 72.274 63.0697 71.9815 63.1092C71.5379 63.1653 71.0877 63.1653 70.6407 63.1917C69.4577 63.1917 68.3305 62.8751 67.1968 62.5916C64.972 62.0376 62.7999 61.332 60.7558 60.2769C60.516 60.1517 60.2761 60.0297 60.0625 59.8681C59.8456 59.6966 59.7864 59.3504 59.8883 59.0867C59.9014 59.057 59.9113 59.0306 59.9277 59.0042C60.0756 58.7339 60.4535 58.5426 60.7296 58.6382C60.9826 58.724 61.2192 58.8559 61.4624 58.9713C64.604 60.4781 67.8672 61.5464 71.3801 61.7013C71.6003 61.7112 71.8303 61.7409 72.0407 61.8068C72.251 61.8695 72.389 62.0146 72.4547 62.2058C72.4777 62.2684 72.4942 62.3377 72.5007 62.4102Z" fill="black"/>
<path d="M65.0057 47.5597C65.4131 48.7368 65.5052 49.9831 65.2653 51.2987C64.8249 53.7452 63.7832 55.8323 61.7622 57.3524C60.7566 58.1074 59.6491 58.5657 58.4431 58.5657C58.3117 58.5657 58.1802 58.5591 58.0455 58.5492C56.1132 58.7108 53.4777 57.4711 51.92 55.3641C51.4303 54.7047 51.0459 53.9562 50.8257 53.1418C50.1586 50.6887 50.5266 48.3708 52.1336 46.3628C52.8336 45.4891 53.6452 44.7604 54.5917 44.2295C55.1602 43.9097 55.778 43.6624 56.4484 43.5009C57.4802 43.2503 58.4135 43.5239 59.3238 43.9295C59.774 44.1273 59.9482 44.6318 59.8135 45.0703C59.6721 45.5418 59.1595 45.8386 58.6337 45.7298C58.4168 45.6869 58.2098 45.588 57.9962 45.5088C57.2732 45.2385 56.5798 45.344 55.9127 45.6968C53.3035 47.0717 52.0646 49.2742 52.5641 52.2912C52.5871 52.4231 52.6331 52.5516 52.6725 52.6802C53.4086 55.1663 56.2972 56.8512 58.2196 56.6731C58.913 56.6072 59.5703 56.4918 60.1289 56.1027C60.681 55.7202 61.2199 55.2883 61.657 54.7871C62.6659 53.6331 63.1457 52.2285 63.356 50.725C63.5499 49.3138 63.1752 48.0411 62.4227 46.8607C62.2781 46.6332 62.0842 46.4354 61.9462 46.2046C61.7063 45.8056 61.7523 45.4066 62.0481 45.0835C62.3833 44.7142 62.8598 44.5988 63.2607 44.8956C63.6123 45.156 63.9409 45.488 64.1775 45.8583C64.5292 46.409 64.8052 46.9761 65.0057 47.5597Z" fill="black"/>
<path d="M62.574 23.0747C62.7054 24.1298 62.1928 24.9409 61.3614 25.4652C60.5661 25.9631 59.6887 26.3554 58.8047 26.6818C54.5392 28.2711 50.1686 29.5075 45.673 30.2428C43.3234 30.6253 40.9376 30.8033 38.5748 31.133C36.6623 31.4034 34.7596 31.7562 32.8536 32.0793C29.3932 32.6662 25.9361 33.2597 22.479 33.8466C20.8359 34.1236 19.1895 34.3676 17.553 34.6709C17.0765 34.7567 16.6197 34.9776 16.1695 35.1721C15.7686 35.3469 15.4137 35.3271 15.0095 35.1424C13.7048 34.5456 13.6358 34.5127 13.4157 33.0718C13.018 30.4373 12.65 27.7963 12.2655 25.1618C11.766 21.7196 11.3158 18.2707 10.4844 14.8878C10.3858 14.4921 10.3036 14.0899 10.2642 13.6876C10.1985 13.0546 10.5271 12.5798 11.0562 12.4709C11.158 12.8369 11.2533 13.2062 11.4111 13.5557C11.5688 13.9052 11.9697 14.0668 12.3411 14.0371C12.4791 14.7493 12.6138 15.4648 12.7321 16.1836C13.2974 19.616 13.8593 23.0483 14.4081 26.4807C14.7137 28.3997 14.9898 30.3219 15.2921 32.2376C15.3348 32.5014 15.4334 32.7553 15.5188 33.052C19.1534 32.4882 22.6663 31.9705 26.1694 31.3902C28.8312 30.9517 31.4799 30.4373 34.1352 29.9461C36.3928 29.5273 38.6603 29.191 40.9442 28.9503C46.649 28.3502 52.2027 27.0775 57.5855 25.0761C58.3446 24.7958 59.0742 24.4332 59.8037 24.0804C60.0765 23.9485 60.3196 23.7407 60.6187 23.5396C59.5145 16.8793 58.4169 10.2453 57.3095 3.61469C57.2733 3.40367 57.132 3.21244 57.0762 3.09374C53.0177 4.15873 49.0315 5.25999 45.0158 6.24255C41.9596 6.99102 38.8772 7.65375 35.7848 8.23076C33.5765 8.64291 31.332 8.86712 29.1007 9.14408C24.9009 9.65844 20.7045 10.1596 16.5606 11.0301C16.1991 11.1059 15.8409 11.2114 15.486 11.3136C15.6043 10.8454 15.4235 10.2981 14.8254 10.1266C14.3522 9.98816 13.8856 9.96179 13.4189 9.97497C13.4354 9.96179 13.4485 9.95189 13.465 9.942C13.81 9.74417 14.1945 9.58261 14.5823 9.50348C16.0808 9.19354 17.5793 8.88031 19.0876 8.64291C21.4899 8.27033 23.8986 7.9472 26.3041 7.62408C27.9111 7.40646 29.5181 7.20863 31.1283 7.03058C33.9939 6.71076 36.8266 6.19969 39.6428 5.6029C44.4834 4.57747 49.2714 3.34432 54.0003 1.89026C54.8613 1.62649 55.6992 1.30336 56.5438 0.993428C57.4606 0.660412 58.647 1.19126 58.9329 2.12436C59.0906 2.64202 59.1859 3.18276 59.245 3.7202C59.8859 9.42764 61.1083 15.0362 62.1698 20.6711C62.3176 21.469 62.4721 22.2669 62.574 23.0747Z" fill="black"/>
<path d="M56.8212 20.6546C56.831 20.9645 56.5583 21.2646 56.2527 21.3239C55.9602 21.38 55.694 21.2942 55.5494 21.0436C55.51 20.9777 55.4738 20.9085 55.4377 20.8392C55.3325 20.6282 55.2471 20.404 55.1945 20.1798C54.8429 18.6367 54.4978 17.0969 54.1856 15.5472C53.7979 13.6448 53.4232 11.739 53.2951 9.79363C53.2819 9.58261 53.1866 9.37489 53.1111 9.10782C51.0506 9.72769 49.1709 10.3443 47.2583 10.8454C45.7828 11.2312 44.2712 11.4752 42.7727 11.7686C42.4703 11.828 42.122 11.5906 42.0234 11.3136C42.0135 11.2906 42.007 11.2675 42.0037 11.2444C41.915 10.9048 42.0464 10.4992 42.3619 10.3805C42.8219 10.2091 43.305 10.0574 43.7881 10.0014C46.3973 9.69142 48.8817 8.8968 51.3496 8.04282C52.0266 7.80872 52.6576 7.44274 53.3181 7.15588C53.9096 6.8954 54.3927 7.11631 54.5767 7.72959C54.6391 7.94391 54.6589 8.17471 54.6786 8.39892C55.0072 12.3259 55.7564 16.177 56.7094 19.9951C56.762 20.2128 56.8179 20.4337 56.8212 20.6546Z" fill="black"/>
<path d="M54.5392 41.76C54.8711 42.0436 54.9434 42.3931 54.766 42.7162C54.6378 42.9503 54.4111 43.0822 54.1449 43.0822C54.0069 43.0822 53.859 43.0459 53.7111 42.9701C51.0263 41.5787 48.1509 40.7148 45.2491 39.9466C44.0398 39.63 42.7943 39.4454 41.5653 39.2014C41.5193 39.1915 41.4733 39.1948 41.4306 39.1849C41.3451 39.1673 41.2663 39.1454 41.1907 39.1157C40.8456 38.9739 40.6452 38.6969 40.6846 38.3837C40.7339 37.9913 41.0855 37.6946 41.5324 37.6616C41.5784 37.6583 41.6245 37.6616 41.8019 37.6616C41.8479 37.6682 42.0254 37.6847 42.1995 37.7243C45.7388 38.5453 49.255 39.4355 52.6398 40.7775C53.0966 40.9588 53.5435 41.1665 53.9839 41.3809C54.1843 41.4798 54.3716 41.6117 54.5392 41.76Z" fill="black"/>
<path d="M54.4168 22.2404C54.5745 22.5833 54.4792 22.9493 54.1473 23.1933C53.9666 23.3252 53.7694 23.4406 53.5656 23.5296C53.03 23.7637 52.5009 24.0275 51.9455 24.1989C49.2246 25.043 46.4346 25.5013 43.5953 25.653C43.1911 25.653 42.7836 25.6793 42.3794 25.6464C41.9752 25.6134 41.7156 25.3101 41.7057 24.9342C41.6959 24.71 41.7977 24.4891 41.9752 24.344C42.0738 24.2583 42.1987 24.1989 42.3433 24.1758C42.6522 24.1264 42.9709 24.133 43.2864 24.1363C45.9679 24.1659 48.5608 23.6087 51.124 22.8998C51.6826 22.7448 52.2052 22.4613 52.7441 22.2338C52.9938 22.1316 53.2304 21.9964 53.4868 21.9173C53.5919 21.8843 53.6938 21.8711 53.7891 21.8711C54.075 21.8711 54.3116 22.0063 54.4168 22.2404Z" fill="black"/>
<path d="M50.9319 55.374C51.0732 55.5389 51.1488 55.7532 51.1193 55.9246C51.0568 56.251 50.6888 56.5742 50.3404 56.561C50.1235 56.5544 49.8968 56.5016 49.6898 56.4291C48.7137 56.0994 47.7345 55.7763 46.7716 55.407C44.8459 54.6684 42.9235 53.9265 40.8959 53.5078C40.1499 53.3528 39.3941 53.2539 38.6481 53.0989C38.2702 53.0231 38.0402 52.6373 38.165 52.2779C38.1815 52.2285 38.2045 52.1823 38.2308 52.1362C38.3162 51.9944 38.4411 51.8625 38.5758 51.7965C38.7631 51.7042 39.0129 51.7372 39.3514 51.7075C39.9922 51.8328 40.7414 51.9614 41.4841 52.1296C43.4985 52.5879 45.4308 53.3133 47.3631 54.0287C48.2898 54.3684 49.2264 54.6783 50.1564 54.9981C50.324 55.0575 50.5047 55.0904 50.6625 55.1663C50.7643 55.2157 50.8564 55.2883 50.9319 55.374Z" fill="black"/>
<path d="M41.549 33.7905C41.8612 34.1004 41.9006 34.4664 41.779 34.7797C41.5884 34.7302 41.4044 34.6709 41.2269 34.5884C40.8556 34.4104 40.6486 33.9158 40.7471 33.5597C40.78 33.4311 40.8424 33.3091 40.9213 33.2036C41.1513 33.3916 41.3584 33.5993 41.549 33.7905Z" fill="black"/>
<path d="M41.2259 34.5884C41.4034 34.6708 41.5874 34.7302 41.778 34.7796C41.5513 35.3764 40.7462 35.7754 40.1546 35.1885C39.987 35.0236 39.8359 34.8653 39.665 34.7302C39.4842 34.9774 39.2148 35.139 38.9059 35.1489C39.0012 34.6115 38.7646 34.2158 38.2486 34.0213C38.1402 33.9784 38.0252 33.9619 37.9102 33.9685C37.9134 33.9454 37.92 33.919 37.9299 33.896C38.2355 33.0486 38.827 32.4749 39.7734 32.6101C40.1941 32.6694 40.5786 32.9134 40.9203 33.2036C40.8415 33.3091 40.779 33.4311 40.7462 33.5597C40.6476 33.9158 40.8546 34.4103 41.2259 34.5884Z" fill="white"/>
<path d="M41.0082 40.4011C41.3401 40.5396 41.5142 40.9221 41.3729 41.3112C41.1232 41.9882 40.8373 42.6498 40.5809 43.3258C39.6542 45.769 38.5928 48.166 37.8961 50.695C37.8698 50.784 37.8403 50.8664 37.8041 50.9489C37.6529 51.2852 37.3966 51.4698 37.091 51.4698C37.045 51.4698 36.999 51.4665 36.9497 51.4566C36.5488 51.3874 36.3056 51.0082 36.3615 50.4378C36.4338 50.1839 36.5093 49.8278 36.6342 49.4915C37.6628 46.7449 38.7012 44.0017 39.7397 41.2617C39.8185 41.054 39.9204 40.8463 40.0453 40.6616C40.1866 40.4539 40.4396 40.3418 40.6927 40.3418C40.8011 40.3418 40.9096 40.3616 41.0082 40.4011Z" fill="black"/>
<path d="M38.2488 34.0214C38.7648 34.216 39.0014 34.6116 38.9061 35.1491C38.8141 35.1524 38.7155 35.1392 38.6169 35.1128C38.1535 34.9875 37.7822 34.4567 37.9104 33.9687C38.0254 33.9621 38.1404 33.9786 38.2488 34.0214Z" fill="black"/>
<path d="M32.4626 26.2793C32.5118 26.576 32.3574 26.909 32.0386 27.0475C31.756 27.1695 31.4504 27.2717 31.1448 27.3146C29.7679 27.5025 28.3909 27.6839 27.0107 27.8323C24.7761 28.0697 22.5711 28.4159 20.458 29.2171C20.2905 29.2797 20.09 29.3786 19.9421 29.3358C19.7055 29.2632 19.4459 29.1281 19.2947 28.9401C19.1501 28.7621 19.1764 28.462 19.3079 28.2609C19.3506 28.1949 19.4065 28.1389 19.4689 28.0993C19.7679 27.9114 20.0933 27.7267 20.4318 27.6443C21.9533 27.2651 23.4682 26.8497 25.0094 26.5859C27.083 26.2331 29.1796 26.0089 31.2664 25.7319C31.4011 25.7122 31.5358 25.7122 31.618 25.7056C32.1076 25.7089 32.4001 25.9232 32.4626 26.2793Z" fill="black"/>
<path d="M29.1538 11.9828C29.5054 12.0916 29.7913 12.5137 29.7388 12.8071C29.7223 12.906 29.6763 13.005 29.6106 13.0907C29.4627 13.2852 29.2195 13.4336 28.9566 13.4468C28.5524 13.4666 28.1482 13.4534 27.744 13.4534C27.7407 13.4204 27.7375 13.3874 27.7309 13.3545C25.8643 13.6149 23.9879 13.8358 22.1279 14.1491C20.1365 14.4821 18.1713 14.9635 16.2555 15.613C16.17 15.6427 16.0813 15.6658 15.9926 15.6724C15.9466 15.6757 15.9006 15.679 15.8545 15.679C15.6147 15.679 15.3912 15.613 15.3058 15.3756C15.2269 15.1415 15.1907 14.7986 15.3058 14.6173C15.4602 14.3766 15.7625 14.1524 16.0386 14.0831C17.9544 13.6017 19.8703 13.1105 21.8091 12.7247C23.4818 12.395 25.1808 12.1873 26.8732 11.9564C27.4056 11.8839 27.9511 11.8938 28.49 11.8872C28.7102 11.8872 28.9402 11.9202 29.1538 11.9828Z" fill="black"/>
<path d="M18.315 27.8028C18.3248 27.928 18.3117 28.0467 18.2788 28.1523C18.2033 28.3963 18.0225 28.5776 17.7859 28.6402C17.4376 28.7326 17.0498 28.5545 16.9184 28.1819C16.7836 27.7995 16.6719 27.4038 16.6226 27.0048C16.4254 25.4815 16.2513 23.9582 16.0837 22.4349C15.9588 21.2677 15.8536 20.1005 15.7386 18.9333H15.6696C15.6696 18.4849 15.64 18.0332 15.6762 17.5881C15.6992 17.2979 15.8931 17.0803 16.1461 16.988C16.2283 16.955 16.3203 16.9418 16.4156 16.9385C16.754 16.9352 17.0597 17.1429 17.1057 17.4595C17.1977 18.0859 17.2634 18.7124 17.3258 19.3422C17.5197 21.182 17.6972 23.0218 17.8944 24.8584C17.9732 25.5772 18.085 26.2893 18.1868 27.0048C18.2263 27.2719 18.2953 27.5357 18.315 27.8028Z" fill="black"/>
<path d="M14.8245 10.1269C15.4226 10.2983 15.6034 10.8456 15.4851 11.3138C15.278 11.3765 15.0743 11.4325 14.8673 11.482C14.5617 11.5545 14.2495 11.6073 13.9373 11.6106C13.5396 11.6172 13.2603 11.3963 13.1223 11.0171C12.9843 10.6379 13.0861 10.1928 13.4181 9.97519C13.8847 9.962 14.3513 9.98838 14.8245 10.1269Z" fill="black"/>
<path d="M14.8677 11.4819C15.0747 11.4325 15.2785 11.3764 15.4855 11.3138C15.3639 11.805 14.9236 12.2139 14.2992 12.0325C13.8391 11.9007 13.3692 11.9105 12.896 11.9534C12.9551 12.1611 13.0242 12.3623 13.1129 12.5601C13.3363 13.0514 13.2575 13.6185 12.758 13.9119C12.6364 13.9845 12.4918 14.0273 12.3406 14.0372C12.2979 13.8196 12.2552 13.6053 12.2125 13.391C12.0909 12.7744 11.5815 12.3755 11.0787 12.4678C11.0722 12.4678 11.0623 12.4711 11.0557 12.4711C10.9703 12.1677 10.8816 11.8644 10.7534 11.5775C10.4478 10.9049 10.8027 10.107 11.6045 10.0905C12.2223 10.0773 12.8204 9.99158 13.4185 9.9751C13.0866 10.1927 12.9847 10.6378 13.1227 11.017C13.2608 11.3962 13.5401 11.6171 13.9377 11.6105C14.2499 11.6072 14.5621 11.5545 14.8677 11.4819Z" fill="white"/>
<path d="M12.2114 13.3906C12.2542 13.6049 12.2969 13.8192 12.3396 14.0368C11.9683 14.0665 11.5673 13.9049 11.4096 13.5554C11.2519 13.2059 11.1566 12.8366 11.0547 12.4706C11.0613 12.4706 11.0711 12.4673 11.0777 12.4673C11.5805 12.375 12.0898 12.774 12.2114 13.3906Z" fill="black"/>
</svg>
