<svg width="82" height="157" viewBox="0 0 82 157" fill="none" xmlns="http://www.w3.org/2000/svg">
<path d="M47.4813 22.2733C47.5322 22.8223 47.5721 23.373 47.623 23.9976C47.4105 24.0606 47.2126 24.147 47.0056 24.1686C46.6352 24.2118 46.2611 24.2136 45.8889 24.237C44.9192 24.2964 43.9532 24.3594 42.9836 24.417C42.615 24.4422 42.2446 24.4584 41.8977 24.4746C41.5437 24.0156 41.5763 23.5098 41.4619 23.0545C41.3112 22.4443 41.2459 21.8161 41.1188 21.2005C40.9281 20.2862 40.6503 20.099 39.7279 20.1998C39.3956 20.234 39.0614 20.2718 38.7255 20.2808C38.4677 20.2862 38.2044 20.2502 37.9356 20.2322C37.1076 19.4618 36.3995 18.6141 35.9455 17.5773C35.8711 17.4081 35.7875 17.2425 35.7313 17.0661C35.3027 15.8188 34.7435 14.6632 33.5723 13.9811C33.6104 13.5113 33.9536 13.3655 34.2042 13.1711C34.8579 12.6689 35.2355 12.0264 35.4008 11.2272C35.6042 10.2121 35.8311 9.2023 36.0654 8.19255C36.3105 7.1342 36.7281 6.16044 37.5525 5.30908C37.7704 5.45308 38.0264 5.54667 38.179 5.72846C38.6747 6.32783 39.1359 6.95961 39.608 7.57518C40.1037 8.22315 40.5885 8.88192 41.106 9.51189C41.313 9.76747 41.5782 9.98887 41.8505 10.1779C42.161 10.3938 42.5423 10.3344 42.7711 10.0969C42.7857 10.0807 42.7984 10.0645 42.8129 10.0483C42.8347 10.0213 42.8528 9.99066 42.8728 9.96187L43.325 10.0195C43.305 10.0429 43.2886 10.0681 43.2723 10.0951C43.2324 10.1653 43.2015 10.2463 43.1815 10.3398C43.0907 10.7844 43.4593 11.175 43.8951 11.076C44.0749 11.0328 44.2347 10.9248 44.4163 10.8816C45.0482 10.7304 45.5112 10.9338 45.8362 11.4846C46.3319 12.327 46.1376 13.3655 45.3623 13.9847C45.1335 14.1683 44.8993 14.3483 44.6487 14.5067C44.093 14.8594 43.8624 15.3436 43.9006 16.0024C43.9224 16.3642 43.857 16.7422 43.768 17.0985C43.6536 17.5629 43.4975 18.0291 43.0435 18.3045C43.0126 18.3243 42.98 18.3477 42.9564 18.3747C42.5914 18.7725 42.6477 19.2206 43.1034 19.4834C44.1203 20.072 45.2098 20.4122 46.3919 20.4446C46.686 20.4518 46.9802 20.477 47.2816 20.495C47.5358 21.0943 47.4378 21.6937 47.4922 22.2733H47.4813ZM37.7595 10.9806C37.7759 10.7322 37.5344 10.4802 37.2783 10.4784C37.0296 10.4784 36.7826 10.7106 36.7626 10.959C36.7463 11.1984 37.0005 11.4684 37.2456 11.4684C37.4908 11.4684 37.745 11.22 37.7595 10.9806Z" fill="white"/>
<path d="M78.6101 141.246C78.5447 144.93 77.7294 148.471 76.3985 151.937C75.4742 152.321 74.5518 152.672 73.5876 152.906C73.5422 152.843 73.4932 152.782 73.446 152.717C73.6148 152.539 73.7674 152.342 73.9544 152.182C74.274 151.912 74.3466 151.583 74.303 151.185C74.0234 148.764 73.7401 146.342 73.4859 143.915C73.4151 143.246 73.0483 142.747 72.6525 142.267C71.0727 140.348 69.4639 138.451 67.8787 136.537C67.7044 136.327 67.5137 136.127 67.3394 135.906C67.1651 135.684 67.0071 135.447 66.8945 135.16C67.7044 134.649 68.6159 134.415 69.4276 133.981C70.2084 133.557 70.991 133.139 71.8372 132.686C72.5526 134.057 73.2626 135.396 73.9508 136.743C74.5391 137.896 75.1056 139.061 75.6849 140.22C75.7829 140.42 75.8846 140.62 76.0044 140.807C76.3839 141.399 76.6581 141.509 77.2955 141.179C77.7585 140.942 78.1398 141.001 78.6083 141.248L78.6101 141.246Z" fill="white"/>
<path d="M26.6904 134.334C26.5996 134.54 26.5469 134.709 26.4561 134.855C25.6989 136.084 24.88 137.279 24.1827 138.539C22.5049 141.588 20.8816 144.668 19.231 147.729C19.1112 147.951 18.9786 148.214 18.7771 148.334C18.3831 148.574 18.2251 148.925 18.1288 149.324C17.8946 150.292 17.6803 151.268 17.4515 152.24C17.3662 152.593 17.2554 152.938 17.1628 153.264C17.0466 153.27 17.0049 153.284 16.9722 153.271C15.2181 152.629 13.3932 152.272 11.5556 151.961C9.64902 151.637 7.96033 150.769 6.36605 149.718C6.0392 149.502 5.70328 149.254 5.57617 148.734C6.8091 148.637 7.92401 148.572 9.03528 148.453C10.8511 148.262 12.6542 147.981 14.4228 147.497C14.7405 147.411 15.0765 147.355 15.4088 147.335C15.8663 147.312 16.146 147.11 16.3639 146.703C16.6272 146.214 16.8705 145.728 17.0466 145.199C18.1161 142.007 19.202 138.823 20.3151 135.65C20.6546 134.673 21.0995 133.733 21.5081 132.783C21.5952 132.587 21.7278 132.409 21.8567 132.194C22.0637 132.225 22.2544 132.221 22.4214 132.284C23.8886 132.832 25.2432 133.611 26.6922 134.333L26.6904 134.334Z" fill="white"/>
<path d="M72.321 81.129C72.3737 81.4044 72.1286 81.6366 71.8453 81.588C71.5947 81.5448 71.3242 81.3522 71.1262 81.6114C71.0046 81.7752 70.9882 82.02 70.9229 82.227C70.912 82.2594 70.8847 82.2864 70.7685 82.461C70.5198 82.4178 70.2692 82.3962 70.0331 82.3314C69.4757 82.1802 69.2814 82.3134 69.2777 82.8857C69.2759 83.0873 69.2777 83.2907 69.2777 83.5373C68.9073 83.3051 68.6277 83.0693 68.3063 82.9397C67.8669 82.7615 67.5763 82.9559 67.5037 83.4095C67.4619 83.6597 67.4492 83.9117 67.4111 84.3059C67.2005 84.0863 67.0516 83.9819 66.9753 83.8361C66.6848 83.2799 66.4178 82.7111 66.1455 82.1442C65.9875 81.8184 65.7424 81.6654 65.4518 81.7176C65.1032 81.7788 64.8853 82.0686 64.9362 82.4574C64.9725 82.7075 65.0633 82.9487 65.1432 83.2421C64.9307 83.3609 64.7201 83.4797 64.4695 83.6201C63.9992 82.9397 63.9175 82.2342 64.0591 81.552C64.3043 80.3587 64.6402 79.1851 64.967 78.0062C65.0451 77.7344 65.2376 77.4896 65.3756 77.2286C65.2303 76.8398 64.9652 76.5302 64.987 76.0839C65.0015 75.8193 64.8018 75.5331 64.6692 75.2703C62.6664 71.3825 60.6381 67.509 58.6625 63.6068C56.8558 60.0322 55.2997 56.3496 54.0649 52.5373C53.1425 49.6809 51.984 46.9126 50.7039 44.1965C50.328 43.3974 49.9884 42.582 49.6289 41.7756C50.2771 40.6201 52.0566 39.3062 53.5601 38.876C53.887 38.9894 53.9451 39.3026 54.0395 39.5725C54.6169 41.2123 55.2289 42.843 55.7409 44.5025C56.8703 48.1491 58.2849 51.6896 59.7829 55.1994C60.7852 57.5519 61.7549 59.9134 62.6864 62.2911C64.0918 65.8765 65.45 69.4782 66.8246 73.078C67.0497 73.6648 67.235 74.2659 67.4365 74.8599C67.4728 74.9661 67.4874 75.0777 67.5291 75.1821C67.6599 75.5061 67.9177 75.6951 68.1937 75.6951L69.67 76.343C69.5973 76.505 69.5937 76.7048 69.6936 76.847C69.8406 77.0576 70.0313 77.2358 70.2147 77.423C70.9719 78.2006 71.6401 79.0429 72.0305 80.0635C72.1649 80.4054 72.2593 80.7654 72.3283 81.1272L72.321 81.129Z" fill="white"/>
<path d="M55.0805 36.6475C55.1077 36.7285 55.144 36.8023 55.184 36.8653C54.3051 37.1587 53.4117 37.4323 52.5747 37.8156C50.8932 38.5878 49.446 39.6804 48.3475 41.1905C48.1023 41.5289 47.9044 41.8799 47.8481 42.292C47.8027 42.6502 47.8717 43.0102 48.2403 43.1236C48.7415 43.2748 48.9285 43.6618 49.1373 44.0524C49.4152 44.5725 49.7111 45.0909 49.9381 45.6363C50.679 47.4164 51.447 49.1839 52.1026 50.9928C52.4385 51.9216 52.778 52.8467 53.1303 53.7719C52.9832 53.6873 52.8035 53.6387 52.591 53.6387C52.0662 53.6387 51.7358 53.9411 51.6014 54.3191C51.4253 54.3407 51.2455 54.3785 51.0657 54.4487C50.3394 54.7295 49.5731 54.9167 48.8196 55.1164C48.6198 55.1668 48.3965 55.1236 48.1877 55.1236C48.0933 54.8087 47.9988 54.5639 47.9498 54.3137C47.5558 52.3914 47.1254 50.4781 46.7931 48.545C46.4608 46.6118 46.1957 44.6679 45.9633 42.7204C45.6583 40.2203 45.4258 37.7149 45.5094 35.1896C45.5529 33.7802 45.7672 32.3979 46.1304 31.066C46.4899 30.9346 46.8785 30.8968 47.0782 30.6862C47.307 30.4396 47.3669 30.04 47.5086 29.6926C48.8976 29.2768 50.1905 29.4136 51.4089 30.1408C51.9537 30.7852 52.4076 31.4961 52.6455 31.8489C53.6351 33.3285 54.4994 34.9646 55.0823 36.6439L55.0805 36.6475Z" fill="white"/>
<path d="M47.416 26.1018C47.4287 26.2584 47.4468 26.4096 47.465 26.559C46.5117 27.3545 45.6837 28.2509 45.1862 29.4461C44.5361 31.012 44.2601 32.6553 44.1566 34.3112C44.0531 35.9707 44.0749 37.6465 44.1748 39.306C44.3545 42.3389 44.8121 45.3429 45.346 48.329C45.7345 50.5159 46.2139 52.6848 46.6497 54.8627C46.6897 55.0643 46.7024 55.2749 46.7314 55.5214C46.4064 55.6006 46.1594 55.6834 45.9052 55.714C43.9042 55.9552 41.9068 56.2432 39.9004 56.3944C38.3696 56.5078 36.8444 56.3224 35.3572 55.8976C34.4275 55.6294 33.7829 55.1039 33.516 54.1445C33.3126 53.3939 33.0366 52.665 32.8187 51.9198C32.1505 49.6357 31.7456 47.3138 31.7056 44.9253C31.6566 41.9645 32.3266 39.1998 33.821 36.6403C34.9795 34.655 36.1689 32.6841 37.36 30.7186C37.8122 29.9698 38.1989 29.1797 38.7836 28.5209C38.8381 28.5713 38.898 28.6181 38.967 28.6559C39.4573 28.9421 40.1891 28.7927 40.4578 28.2689C40.5123 28.1645 40.5704 28.0601 40.6285 27.9611C40.6666 27.8963 40.7102 27.8333 40.7502 27.7721C40.7556 27.7631 40.7556 27.7613 40.7611 27.7559C40.7611 27.7559 40.7629 27.7541 40.7665 27.7505C40.7774 27.7361 40.7992 27.7145 40.821 27.6965C41.2132 27.7235 41.5891 27.5777 41.8178 27.189C42.0212 26.8434 42.0085 26.3196 41.7579 25.9794C42.2954 25.8948 42.8274 25.8138 43.3667 25.7742C44.7431 25.6752 46.1268 25.6284 47.5068 25.5654C47.4341 25.7112 47.3978 25.893 47.4142 26.1036L47.416 26.1018Z" fill="white"/>
<path d="M36.2622 60.5342C36.2622 60.6404 36.2223 60.7484 36.1914 60.8996C35.5431 61.1786 34.8259 61.2254 34.1377 61.3406C31.3341 61.8013 28.5596 62.3629 25.8631 63.2683C25.7668 63.3007 25.6506 63.2701 25.5017 63.2701C25.4346 63.1027 25.3492 62.9407 25.3002 62.7679C24.7373 60.7358 24.1889 58.7001 23.6115 56.6698C23.4953 56.2522 23.5025 55.8958 23.7041 55.5016C24.0727 54.7745 24.4032 54.0293 24.7191 53.2805C24.8644 52.9422 24.9806 52.5786 25.0151 52.2168C25.0932 51.4176 24.4322 50.9569 23.7059 51.3024C23.3082 51.4914 22.9178 51.7434 22.6019 52.044C21.9319 52.6866 21.3054 53.3741 20.6753 54.0581C20.501 54.2471 20.3448 54.4721 20.2504 54.7061C20.1578 54.9383 20.1215 55.2029 20.1179 55.4548C20.1179 55.5196 20.1342 55.5826 20.1615 55.642L19.6966 55.93C18.6888 54.3335 17.9099 52.6524 17.9752 50.6869C17.9825 50.3809 17.7846 50.1685 17.5249 50.1379C17.5067 50.1361 17.4868 50.1361 17.4668 50.1361L17.7228 49.6483C17.9171 49.7671 18.1713 49.7347 18.322 49.5475C18.4146 49.4341 18.4746 49.2919 18.5635 49.1785C19.2463 48.32 19.7729 47.285 21.0058 47.0366C21.0911 47.0204 21.1365 46.8638 21.2219 46.7936C21.5433 46.5291 21.8974 46.3995 22.4367 46.5615C22.0971 46.8296 21.8374 47.0312 21.585 47.24C20.57 48.068 19.6676 49.0003 18.9957 50.1289C18.8432 50.3827 18.6997 50.6455 18.598 50.9191C18.4836 51.2286 18.6362 51.522 18.9267 51.6588C19.1973 51.7848 19.4987 51.6534 19.6203 51.3024C20.1451 49.7905 21.2963 48.8132 22.5038 47.8538C22.7163 47.9546 22.8743 48.0554 23.0468 48.1022C23.4172 48.1994 23.7386 47.9366 23.6914 47.5694C23.6696 47.3948 23.606 47.2076 23.5098 47.0582C23.39 46.8782 23.2156 46.7306 23.0686 46.5741C23.1485 46.2825 23.3718 46.0161 23.1448 45.7245C22.9215 45.4365 22.5946 45.3483 22.246 45.3681C21.99 45.3807 21.7339 45.4437 21.4779 45.4833C21.3018 45.5103 21.1238 45.5409 20.9168 45.5751C20.8496 45.4023 20.7806 45.2727 20.7425 45.1377C20.0761 42.7096 19.4079 40.2833 18.7451 37.8553C18.7179 37.7527 18.7433 37.6375 18.7433 37.4647C18.9449 37.3459 19.1464 37.1803 19.3807 37.0975C19.7983 36.9427 20.2323 36.8329 20.6644 36.7141C23.6823 35.8753 26.7456 35.1896 29.6726 34.0466C29.8034 33.9944 29.9559 33.998 30.152 33.9692C30.2355 34.277 30.3245 34.5542 30.3844 34.8404C30.5697 35.7098 30.7004 36.5899 30.9255 37.4485C31.1162 38.1576 31.089 38.8164 30.8438 39.5058C30.1647 41.4227 30.0376 43.4152 30.1084 45.4203C30.221 48.5558 30.9292 51.5688 31.9388 54.5297C32.4762 56.0974 33.5276 56.9812 35.0946 57.3556C35.4542 57.4419 35.8137 57.5355 36.1914 57.6345C36.215 58.6191 36.2404 59.5766 36.2586 60.5342H36.2622ZM24.3596 50.0965C24.5321 49.9291 24.5938 49.7239 24.4958 49.4881C24.2089 48.797 23.5243 48.5036 22.8597 48.8545C22.473 49.0561 22.1025 49.3297 21.7939 49.6375C21.3744 50.0569 20.9931 50.5159 20.6499 50.9964C20.1542 51.6876 19.6912 52.4022 19.2499 53.1257C19.121 53.3327 19.0593 53.6117 19.0647 53.8565C19.0665 53.9915 19.2499 54.1913 19.3934 54.2399C19.5386 54.2849 19.7565 54.2147 19.8982 54.1283C20.0071 54.0599 20.058 53.8907 20.1161 53.7557C20.6172 52.6308 21.3308 51.6444 22.1516 50.7319C22.473 50.3755 22.798 50.0137 23.3464 49.8409C23.4608 49.9291 23.5951 50.0515 23.7459 50.1415C23.9529 50.2657 24.1762 50.2729 24.3578 50.0947L24.3596 50.0965Z" fill="white"/>
<path d="M81.9959 124.413C81.9995 125.095 81.6836 125.473 81.226 125.526C81.1661 125.531 81.1061 125.533 81.0498 125.529C81.1443 125.421 81.2314 125.308 81.315 125.194C81.66 124.714 81.4039 123.996 80.9246 123.717C80.6013 123.528 80.2545 123.531 79.9604 123.666C79.8569 123.413 79.7425 123.166 79.6335 122.916C76.8118 116.271 73.9845 109.629 71.1555 102.987C70.2567 100.876 69.3706 98.7591 68.4336 96.664C67.1426 93.7823 65.9387 90.8701 64.8184 87.9218C65.0217 87.929 65.2269 87.8822 65.3994 87.7814C65.9369 87.47 66.0567 86.8311 65.7898 86.3037C65.7317 86.1867 65.6754 86.0715 65.6173 85.9581C65.6064 85.9311 65.5247 85.7367 65.5174 85.7259C65.4811 85.6341 65.4539 85.5423 65.4303 85.4487C65.5864 85.5117 65.7226 85.6233 65.8116 85.7889C65.8643 85.8861 65.8988 85.9941 65.926 86.0985C66.5543 88.4672 67.5185 90.7117 68.4663 92.9616C69.6157 95.6921 70.8541 98.3829 72.0235 101.103C74.8343 107.635 77.6198 114.17 80.427 120.7C80.8356 121.652 81.2914 122.585 81.7072 123.535C81.8524 123.87 81.9396 124.23 81.9995 124.413H81.9959Z" fill="black"/>
<path d="M81.1911 140.454C81.685 140.816 81.7958 141.145 81.5416 141.705C81.1748 142.522 80.9896 143.388 80.7898 144.253C80.4031 145.953 79.8529 147.601 79.2809 149.248C78.9813 150.116 78.836 151.039 78.6381 151.941C78.5346 152.411 78.4692 152.889 78.3821 153.361C78.2096 154.292 77.5977 155.051 76.6516 155.337C75.3333 155.739 73.9987 156.095 72.6623 156.428C71.7962 156.644 70.91 156.799 70.0312 156.957C69.8151 156.997 69.5791 156.995 69.3702 156.946C68.7619 156.799 68.564 156.097 68.9853 155.633C69.0343 155.575 69.0833 155.517 69.1451 155.481C70.3381 154.758 71.0371 153.613 71.7489 152.479C72.0431 152.009 72.419 151.547 72.5479 151.032C72.6786 150.514 72.577 149.929 72.5261 149.376C72.3663 147.68 72.172 145.99 72.0086 144.295C71.9687 143.868 71.7853 143.537 71.5165 143.209C69.7625 141.073 68.0193 138.931 66.2598 136.771L67.3384 135.907C67.5127 136.129 67.7033 136.328 67.8776 136.539C69.4628 138.452 71.0735 140.349 72.6514 142.268C73.0472 142.749 73.414 143.247 73.4849 143.917C73.7391 146.345 74.0223 148.766 74.302 151.187C74.3456 151.585 74.2729 151.914 73.9533 152.184C73.7645 152.342 73.6138 152.54 73.4449 152.718C73.4903 152.783 73.5393 152.846 73.5865 152.907C74.5507 152.672 75.4732 152.321 76.3974 151.939C77.7284 148.472 78.5437 144.932 78.6091 141.248C78.1406 141.001 77.7593 140.942 77.2962 141.179C76.6589 141.509 76.3847 141.397 76.0052 140.807C75.8854 140.619 75.7855 140.421 75.6856 140.22C75.1064 139.061 74.5398 137.896 73.9515 136.742L75.1772 136.134C75.5748 136.917 75.9707 137.704 76.3702 138.487C76.5209 138.778 76.7134 139.05 76.8495 139.269C77.841 139.453 78.7525 139.619 79.6677 139.788C80.2269 139.892 80.7354 140.117 81.1893 140.454H81.1911Z" fill="black"/>
<path d="M80.9231 123.715C81.4024 123.994 81.6584 124.712 81.3134 125.192C81.2317 125.306 81.1446 125.419 81.0483 125.527C80.658 125.498 80.3185 125.228 80.2749 124.789C80.235 124.388 80.1097 124.019 79.959 123.664C80.2531 123.529 80.5981 123.526 80.9231 123.715Z" fill="black"/>
<path d="M80.7401 72.4838C81.0342 74.1307 79.7432 75.4753 78.5974 75.8785C78.1689 76.0296 77.7803 76.1808 77.4317 76.4634C77.2955 76.5768 77.0939 76.6092 76.925 76.6902C75.6158 77.3202 74.3048 77.9484 72.9975 78.5837C72.8994 78.6287 72.8195 78.7115 72.6706 78.8213C72.7632 79.1147 72.8613 79.4243 72.963 79.7285C73.1482 80.2919 73.308 80.8624 73.2844 81.4636C73.2571 82.234 73.0646 82.4122 72.2639 82.3924H71.9861C71.9552 82.5939 71.9388 82.8135 71.8934 83.0205C71.7627 83.5893 71.523 83.7351 70.9293 83.6091C70.7858 83.5767 70.646 83.5281 70.4281 83.4633C70.3736 83.7225 70.3409 83.9601 70.2719 84.1869C70.1249 84.671 69.8307 84.8564 69.3477 84.7646C69.1298 84.725 68.9173 84.6404 68.6341 84.5523C68.5378 84.7214 68.4434 84.905 68.3327 85.0814C67.9622 85.6754 67.3739 85.8068 66.8292 85.364C66.4896 85.0868 66.2227 84.7197 65.8704 84.3363C65.7106 84.4425 65.5381 84.5541 65.3638 84.6638C65.3293 84.6854 65.293 84.707 65.2585 84.725C65.0769 84.3849 64.7265 84.1491 64.3052 84.1491C64.002 84.1491 63.7114 84.2841 63.5099 84.4983C63.3973 84.3759 63.2974 84.2301 63.2157 84.0627C63.0686 83.7693 62.9706 83.4525 62.8289 83.0997C62.5893 83.1609 62.3768 83.1969 62.1789 83.2743C61.2782 83.6217 60.383 83.9835 59.4824 84.3345C59.3226 84.2193 59.112 84.1473 58.8578 84.1473C58.442 84.1473 58.0207 84.1527 57.6085 84.1887C57.5958 84.1563 57.5849 84.1239 57.5758 84.0879C57.5395 83.9475 57.5486 83.7963 57.5976 83.6595C57.6739 83.6037 57.7392 83.5389 57.7992 83.4651C58.0661 83.3949 58.3276 83.3121 58.5908 83.1897C58.7416 83.1213 58.8578 83.0115 58.9449 82.8765C60.2251 82.4194 61.5052 81.9622 62.809 81.4942C63.2175 79.9931 63.6116 78.5315 64.002 77.0952C61.4144 71.7494 58.4765 66.5981 56.1014 61.1173C55.8399 61.1785 55.622 61.2037 55.4295 61.2811C54.7758 61.5475 54.124 61.8247 53.4739 62.0965C53.6046 61.9183 53.6827 61.6987 53.6827 61.4665V60.6458C54.0931 60.482 54.4998 60.3146 54.9084 60.1472C55.1081 60.0662 55.2933 59.9474 55.5367 59.8142C55.4332 59.537 55.3569 59.2958 55.257 59.0636C54.6832 57.7245 54.1349 56.3746 53.6101 55.0156C53.7263 54.5548 53.5683 54.0149 53.1344 53.7683C52.7821 52.8449 52.4425 51.918 52.1066 50.9892C51.4493 49.1803 50.683 47.4128 49.9422 45.6327C49.7152 45.0873 49.4192 44.5689 49.1414 44.0487C48.9344 43.6581 48.7456 43.2712 48.2444 43.12C47.8758 43.0066 47.8068 42.6484 47.8522 42.2884C47.9066 41.8762 48.1046 41.5234 48.3515 41.1869C49.4501 39.6767 50.8973 38.5842 52.5787 37.812C53.414 37.4286 54.3092 37.1551 55.188 36.8617C55.5403 37.461 56.3193 37.5096 56.8114 37.1965C56.8223 37.3926 56.7242 37.6212 56.5553 37.7364C56.4046 37.8426 56.2339 37.9254 56.0632 37.9902C55.7546 38.109 55.4368 38.2062 55.0718 38.3286C55.0991 38.5482 55.0882 38.7318 55.1463 38.8902C57.2181 44.8749 59.4951 50.7858 61.9392 56.6301C61.9937 56.7633 62.0736 56.8893 62.1625 57.0675C63.1485 56.7867 64.0165 56.2882 64.9262 55.8904C65.8105 55.5052 66.6839 55.0948 67.4919 54.724C67.6717 54.3569 67.4756 54.1319 67.3848 53.9087C65.3656 49.0021 63.0595 44.2359 60.5156 39.5777C59.181 37.1335 57.7175 34.7666 56.0978 32.5005C55.2135 31.2639 54.2257 30.0976 53.2615 28.9204C52.8638 28.4381 52.3917 28.0331 51.8687 27.6929C51.1951 27.1745 50.4506 26.8019 49.6462 26.7317C49.6335 26.5265 49.6171 26.3178 49.5972 26.0964C49.5863 25.9668 49.5554 25.848 49.5136 25.74C49.5209 25.74 49.53 25.7364 49.5372 25.7346C50.5141 25.3854 51.3748 25.7148 52.2047 26.1846C53.0218 26.6471 53.759 27.2213 54.3455 27.9539C55.3896 29.257 56.4373 30.562 57.4069 31.9173C61.1384 37.1335 63.9783 42.8428 66.7166 48.6043C67.4175 50.0784 68.0675 51.5706 68.7485 53.0555C68.8683 53.3183 69.0118 53.5685 69.1734 53.8763C69.4149 53.7971 69.6291 53.7467 69.8234 53.6657C70.6859 53.3129 71.5448 52.9511 72.4055 52.5965C72.8649 52.4075 73.3316 52.2996 73.8128 52.5281C73.8781 52.5569 73.9598 52.5965 74.0252 52.5839C74.9186 52.4435 75.1383 52.9943 75.3598 53.7107C75.95 55.6186 76.6291 57.5013 77.2664 59.3966C78.5338 63.1548 79.4999 66.9959 80.4858 70.8315C80.6238 71.3661 80.6438 71.9294 80.7419 72.4748L80.7401 72.4838ZM78.8552 73.6916C79.0713 73.4648 79.1331 73.166 79.1058 72.8636C79.055 72.311 79.0296 71.7512 78.9079 71.2131C78.6156 69.9153 78.2669 68.6266 77.9546 67.3342C76.9232 63.0882 75.6431 58.9124 74.0779 54.8284C73.9671 54.5314 73.9617 54.1535 73.5313 53.9609C72.9194 54.0617 72.302 54.3227 71.6901 54.5818C68.8792 55.7806 66.0738 56.9901 63.2702 58.1997C63.0741 58.2843 62.8943 58.4103 62.6946 58.5237C62.7436 58.7217 62.769 58.8638 62.8144 58.9988C63.4953 60.9175 64.14 62.8489 64.8735 64.7496C66.0302 67.7536 67.2486 70.7379 68.4416 73.7312C68.5778 74.0731 68.7267 74.4133 68.8356 74.7679C68.9627 75.1747 68.7775 75.5203 68.398 75.6553C68.3272 75.6823 68.2564 75.6931 68.1856 75.6931C67.9114 75.6931 67.6517 75.5041 67.521 75.1801C67.4792 75.0775 67.4647 74.9641 67.4284 74.8579C67.2268 74.2639 67.0416 73.6628 66.8165 73.076C65.4437 69.478 64.0855 65.8763 62.6782 62.2891C61.7467 59.9114 60.7771 57.5481 59.7748 55.1974C58.2767 51.6876 56.8622 48.1489 55.7328 44.5005C55.2207 42.8392 54.607 41.2085 54.0314 39.5705C53.9351 39.3006 53.8788 38.9874 53.552 38.874C52.0485 39.3042 50.2708 40.6181 49.6208 41.7736C49.9803 42.58 50.3217 43.3954 50.6957 44.1945C51.9759 46.9106 53.1344 49.6771 54.0568 52.5353C55.2915 56.3476 56.8477 60.0302 58.6544 63.6048C60.6282 67.5052 62.6583 71.3805 64.6611 75.2683C64.7936 75.5311 64.9934 75.8173 64.9789 76.0818C64.9571 76.5264 65.224 76.8378 65.3674 77.2266C65.2294 77.4894 65.037 77.7324 64.9589 78.0042C64.632 79.1813 64.2979 80.3549 64.051 81.55C63.9093 82.2322 63.9911 82.9377 64.4614 83.6181C64.7119 83.4777 64.9226 83.3589 65.135 83.2401C65.0551 82.9467 64.9625 82.7055 64.928 82.4554C64.8754 82.0666 65.0933 81.7768 65.4437 81.7156C65.7342 81.6634 65.9794 81.8146 66.1373 82.1422C66.4097 82.7091 66.6766 83.2779 66.9672 83.8341C67.0434 83.9799 67.1941 84.0843 67.403 84.3039C67.4411 83.9097 67.4538 83.6577 67.4956 83.4075C67.5682 82.9539 67.8605 82.7595 68.2982 82.9377C68.6196 83.0673 68.901 83.3031 69.2696 83.5353C69.2696 83.2887 69.2678 83.0871 69.2696 82.8837C69.2714 82.3114 69.4657 82.1782 70.025 82.3294C70.2628 82.3942 70.5134 82.4158 70.7604 82.459C70.8766 82.2844 70.9038 82.2574 70.9147 82.225C70.9801 82.018 70.9964 81.7732 71.1181 81.6094C71.3178 81.3502 71.5866 81.541 71.8372 81.586C72.1204 81.6346 72.3656 81.4024 72.3129 81.127C72.2457 80.7652 72.1495 80.4052 72.0151 80.0633C71.6229 79.0427 70.9565 78.2004 70.1993 77.4228C70.0177 77.2374 69.8271 77.0592 69.6782 76.8468C69.5783 76.7046 69.5801 76.5048 69.6546 76.3428C69.6872 76.2636 69.7399 76.1952 69.8016 76.143C69.9923 75.9793 70.2229 75.9505 70.4245 76.062C70.6478 76.1862 70.8494 76.359 71.0328 76.5408C71.2906 76.8036 71.523 77.0916 71.7954 77.403C72.1567 77.2356 72.4927 77.0862 72.8213 76.926C73.7892 76.4454 74.7497 75.9505 75.7212 75.4843C76.1243 75.2899 76.5437 75.1279 76.9686 74.9983C77.7422 74.7643 78.3087 74.2513 78.8444 73.6934L78.8552 73.6916Z" fill="black"/>
<path d="M80.275 124.791C80.3186 125.229 80.6599 125.499 81.0484 125.529C80.3966 126.28 79.4834 126.833 78.4975 126.872C78.5538 126.606 78.4267 126.325 78.1998 126.15C77.9383 125.949 77.5389 125.936 77.2666 126.15C77.1849 126.215 77.1104 126.291 77.0396 126.366C76.5476 125.648 77.1322 124.385 78.2107 124.687C78.5429 124.782 79.1148 124.55 79.4326 124.104C79.5724 123.909 79.7539 123.758 79.9591 123.667C80.1079 124.023 80.2332 124.39 80.275 124.791Z" fill="#CCCCCC"/>
<path d="M79.6329 122.914C79.7418 123.164 79.8562 123.411 79.9597 123.664C79.7564 123.756 79.573 123.907 79.4332 124.102C79.1154 124.546 78.5434 124.78 78.2111 124.685C77.1325 124.382 76.5478 125.646 77.0399 126.364C76.9854 126.424 76.931 126.485 76.8765 126.542C73.973 129.55 70.6247 131.93 66.7171 133.479C63.8263 134.628 60.8175 135.342 57.7397 135.789C55.0051 136.183 52.2505 136.41 49.4923 136.546C45.7173 136.734 41.9531 136.687 38.1944 136.269C34.5973 135.866 31.1727 134.898 27.9187 133.332C26.8456 132.813 25.7852 132.268 24.712 131.748C23.5081 131.159 22.277 130.646 20.9969 130.232C18.5909 129.455 16.1305 129.271 13.6374 129.314C13.6392 129.291 13.6429 129.266 13.6429 129.239C13.6483 129.174 13.6501 129.136 13.6483 129.12C13.6628 129.055 13.6792 128.99 13.6973 128.925C13.7318 128.798 13.7409 128.801 13.8335 128.636C13.9116 128.528 13.9225 128.506 13.8626 128.571C13.9116 128.515 13.9606 128.459 14.0133 128.407C14.046 128.377 14.0641 128.36 14.0787 128.35C14.115 128.326 14.1531 128.301 14.1931 128.279C14.7142 127.999 14.8776 127.298 14.5835 126.802C14.3565 126.418 13.9352 126.235 13.5176 126.283C14.756 122.955 16.0216 119.636 17.2273 116.294C20.2179 108.005 23.1214 99.684 26.1737 91.4188C28.5851 84.8905 31.169 78.4234 33.6748 71.9311C34.501 69.791 35.4235 67.6833 36.0572 65.473C36.1171 65.2642 36.2351 65.0734 36.3495 64.879C36.6927 65.5936 37.8476 65.8024 38.2779 64.9834C38.3469 64.8556 38.4195 64.7351 38.5013 64.6199C38.5158 64.5983 38.5285 64.5821 38.543 64.5623C38.5448 64.5623 38.6356 64.4471 38.6556 64.4255C38.8263 64.2257 39.0115 64.0385 39.2003 63.8531C39.6198 63.4373 39.6198 62.7407 39.2003 62.325C38.8299 61.9578 38.238 61.9164 37.8167 62.1972C37.7731 62.1846 37.7295 62.1738 37.6823 62.1612C37.6278 61.2774 37.5607 60.3955 37.4862 59.5153C37.4372 58.9249 37.5098 58.3544 37.6787 57.8306C39.2911 57.7352 40.8182 57.6884 42.3362 57.548C43.8887 57.4022 45.4304 57.1664 47.0101 56.9702C47.1009 57.2762 47.1808 57.5174 47.2425 57.764C47.4514 58.6279 47.6475 59.4955 47.8654 60.3559C47.9271 60.6024 48.0197 60.8526 48.1486 61.0704C48.3211 61.3638 48.6988 61.4682 49.0329 61.362L49.3925 62.3358C48.4501 62.6813 47.5004 63.0107 46.5416 63.3113C46.1857 63.4229 45.8226 63.5237 45.4867 63.6839C44.33 64.2275 43.9977 65.014 44.3972 66.2254C44.4644 66.436 44.5424 66.6448 44.626 66.8482C45.1943 68.2179 45.7209 69.6038 46.3473 70.9466C47.6983 73.8318 49.0874 76.7027 50.4928 79.561C50.9831 80.5581 51.5587 81.5139 52.1216 82.4714C52.3867 82.9178 52.7045 83.3336 53.0223 83.7404C53.3709 84.1867 53.803 84.5539 54.3278 84.7663C54.6637 84.9049 55.0414 84.9805 55.4028 84.9931C55.4227 84.9931 55.4409 84.9931 55.4609 84.9913C55.0977 85.7329 55.6733 86.8506 56.692 86.5392C57.4056 86.3197 58.1138 86.3071 58.8546 86.3071C60.0077 86.3071 60.2147 84.8581 59.4793 84.3343C60.3799 83.9834 61.2733 83.6216 62.1757 83.2742C62.3736 83.195 62.5879 83.1608 62.8258 83.0996C62.9674 83.4524 63.0655 83.7692 63.2126 84.0626C63.2943 84.2299 63.3941 84.3757 63.5067 84.4981C63.3179 84.6925 63.2017 84.9481 63.2126 85.2289C63.2398 86.0155 63.5557 86.7012 63.9062 87.3942C64.0751 87.7344 64.4455 87.9162 64.8159 87.9216C65.9363 90.8698 67.1401 93.7821 68.4312 96.6638C69.3681 98.7589 70.2524 100.876 71.1531 102.987C73.9821 109.629 76.8093 116.27 79.6311 122.916L79.6329 122.914Z" fill="#CCCCCC"/>
<path d="M79.1049 72.8637C79.1321 73.166 79.0704 73.4648 78.8543 73.6916C78.3168 74.2478 77.7521 74.7608 76.9786 74.9966C76.5537 75.1262 76.1342 75.2882 75.7311 75.4825C74.7578 75.9487 73.7973 76.4437 72.8313 76.9243C72.5008 77.0863 72.1667 77.2339 71.8053 77.4013C71.533 77.0917 71.3006 76.8019 71.0427 76.5391C70.8611 76.3591 70.6578 76.1863 70.4344 76.0603C70.2329 75.9487 70.0023 75.9775 69.8116 76.1413C69.7499 76.1935 69.6972 76.2619 69.6645 76.3411L68.1883 75.6931C68.2591 75.6931 68.3299 75.6823 68.4007 75.6553C68.782 75.5203 68.9672 75.1748 68.8383 74.768C68.7294 74.4152 68.5805 74.0732 68.4443 73.7312C67.2513 70.738 66.0329 67.7537 64.8762 64.7496C64.1445 62.8489 63.498 60.9176 62.8171 58.9989C62.7699 58.8639 62.7463 58.7217 62.6973 58.5237C62.897 58.4103 63.0768 58.2843 63.2729 58.1997C66.0765 56.9902 68.8801 55.7806 71.6928 54.5819C72.3047 54.3227 72.9221 54.0617 73.534 53.9609C73.9643 54.1535 73.9698 54.5297 74.0806 54.8285C75.644 58.9125 76.9241 63.0865 77.9573 67.3343C78.2696 68.6285 78.6182 69.9154 78.9106 71.2131C79.0341 71.7513 79.0577 72.3093 79.1085 72.8637H79.1049Z" fill="#F5E828"/>
<path d="M78.1992 126.148C78.4262 126.321 78.5533 126.603 78.497 126.871C78.2137 126.884 77.9251 126.851 77.6328 126.772C77.3604 126.693 77.1643 126.547 77.0391 126.367C77.1099 126.291 77.1843 126.215 77.266 126.15C77.5383 125.936 77.9396 125.948 78.1992 126.15V126.148Z" fill="black"/>
<path d="M77.633 126.77C77.9235 126.851 78.2141 126.883 78.4973 126.869C78.4828 126.924 78.4647 126.982 78.4338 127.04C78.2613 127.36 78.0379 127.668 77.7855 127.931C76.7396 128.989 75.6284 129.979 74.4172 130.855C74.0867 131.093 73.7672 131.338 73.4803 131.548C73.3822 132.144 73.3986 132.639 73.6528 133.132C74.1666 134.131 74.6732 135.134 75.1799 136.135L73.9542 136.743C73.266 135.397 72.556 134.057 71.8406 132.686C70.9944 133.139 70.2118 133.559 69.431 133.982C68.6194 134.416 67.706 134.651 66.898 135.161C67.0105 135.447 67.1685 135.685 67.3428 135.906L66.2643 136.77C65.9665 136.405 65.6705 136.041 65.3727 135.676C65.1148 135.719 64.8933 135.731 64.6899 135.794C61.6067 136.729 58.4472 137.249 55.2496 137.598C52.3134 137.92 49.3664 138.062 46.4193 138.132C43.1291 138.212 39.8497 138.053 36.5867 137.585C34.2461 137.247 31.9964 136.597 29.8011 135.735C29.5577 135.64 29.3253 135.521 29.0765 135.443C28.3684 135.218 27.9453 135.325 27.5113 135.91C26.9793 136.624 26.4291 137.339 26.0024 138.113C24.3409 141.135 22.714 144.175 21.0924 147.217C20.8509 147.67 20.6948 148.172 20.5096 148.655C20.3643 149.036 20.259 149.425 19.8831 149.674C19.5817 149.875 19.5327 150.23 19.4546 150.554C19.1586 151.851 18.8772 153.155 18.563 154.449C18.4432 154.949 18.2834 155.442 18.0946 155.923C17.9184 156.384 17.5952 156.558 17.1285 156.459C16.8416 156.4 16.5602 156.286 16.2915 156.16C15.1112 155.599 13.9273 155.05 12.7724 154.449C11.8663 153.977 10.9094 153.702 9.90708 153.552C8.4272 153.335 6.95458 153.108 5.47833 152.877C5.22049 152.84 4.9699 152.769 4.71024 152.726C2.89807 152.418 1.67603 151.369 0.956973 149.729C0.630128 148.988 0.392257 148.205 0.107176 147.44C-0.072589 146.959 -0.00903542 146.498 0.170729 146.034C0.303283 145.692 0.539338 145.471 0.909762 145.44C1.23298 145.413 1.53077 145.554 1.63608 145.852C1.89938 146.581 2.54399 146.698 3.15773 146.79C4.59948 147.01 6.04486 147.146 7.51022 147.017C9.81992 146.817 12.1133 146.531 14.3376 145.858C14.5864 145.782 14.8479 145.746 15.2401 145.663C16.9451 140.975 18.6393 136.322 20.3498 131.613C20.0393 131.494 19.8087 131.379 19.5635 131.32C18.218 130.985 16.8525 130.796 15.4634 130.823C14.5664 130.843 13.6712 130.891 12.7779 130.935C12.1768 130.965 11.8173 130.764 11.7338 130.339C11.7102 130.209 11.7174 130.081 11.7574 129.968C11.9608 130.182 12.2495 130.317 12.5527 130.317C13.1338 130.317 13.5823 129.869 13.6367 129.313C16.128 129.27 18.5903 129.453 20.9962 130.231C22.2764 130.643 23.5075 131.158 24.7113 131.746C25.7845 132.267 26.8449 132.814 27.9181 133.33C31.1738 134.896 34.5966 135.865 38.1937 136.268C41.9524 136.685 45.7166 136.732 49.4917 136.545C52.2517 136.406 55.0044 136.18 57.739 135.787C60.8168 135.343 63.8256 134.626 66.7164 133.478C70.624 131.928 73.9724 129.55 76.8758 126.541C76.9303 126.485 76.9848 126.422 77.0392 126.363C77.1645 126.543 77.3606 126.689 77.633 126.768V126.77ZM26.4563 134.857C26.5471 134.711 26.6016 134.54 26.6906 134.336C25.2416 133.613 23.887 132.835 22.4198 132.288C22.2527 132.225 22.0621 132.229 21.8551 132.198C21.7262 132.412 21.5936 132.591 21.5065 132.787C21.0979 133.737 20.653 134.677 20.3135 135.654C19.2004 138.829 18.1145 142.011 17.045 145.203C16.8671 145.732 16.6256 146.218 16.3623 146.707C16.1444 147.114 15.8629 147.316 15.4072 147.339C15.0749 147.359 14.7389 147.415 14.4212 147.501C12.6526 147.985 10.8495 148.266 9.03368 148.457C7.92241 148.576 6.80932 148.64 5.57457 148.738C5.70167 149.26 6.0376 149.508 6.36444 149.722C7.95872 150.775 9.64742 151.643 11.554 151.965C13.3916 152.276 15.2165 152.633 16.9706 153.275C17.0033 153.286 17.045 153.272 17.1612 153.268C17.2538 152.944 17.3646 152.598 17.4499 152.244C17.6787 151.272 17.8948 150.298 18.1272 149.328C18.2235 148.928 18.3814 148.577 18.7755 148.338C18.977 148.216 19.1114 147.955 19.2294 147.733C20.88 144.672 22.5033 141.592 24.1811 138.543C24.8784 137.283 25.6973 136.086 26.4545 134.858L26.4563 134.857Z" fill="black"/>
<path d="M36.4568 8.61023C36.3715 8.61563 36.1917 8.34204 36.1954 8.20165C36.2008 8.05945 36.3515 7.84526 36.4877 7.79486C37.1685 7.54108 37.9728 7.94426 38.2016 8.61563C38.2797 8.84602 38.1744 8.98821 37.695 9.2312C37.3011 9.02241 37.0087 8.57423 36.4586 8.61023H36.4568Z" fill="black"/>
<path d="M38.1658 16.7585C38.1876 16.5047 37.8862 16.2617 37.6374 16.3409C37.5666 16.3625 37.4795 16.3751 37.4359 16.4237C37.14 16.7585 36.775 16.8431 36.3357 16.8053C36.214 16.7945 35.998 16.9889 35.9598 17.1275C35.9199 17.2733 35.998 17.5001 36.1033 17.6207C36.2122 17.7449 36.4137 17.8295 36.5862 17.8529C37.1763 17.9392 37.8717 17.5325 38.124 16.9727C38.1531 16.9115 38.1513 16.8323 38.164 16.7585H38.1658Z" fill="black"/>
<path d="M65.7885 86.3036C66.0554 86.8291 65.9356 87.4699 65.3982 87.7813C65.2257 87.8803 65.0224 87.9289 64.8172 87.9217C64.7791 87.8245 64.7409 87.7309 64.7065 87.6337C64.5757 87.2881 64.4704 86.9317 64.3669 86.5771C64.2816 86.2766 64.3306 85.9886 64.5104 85.7294C64.7282 85.4126 65.115 85.3244 65.429 85.4486C65.4527 85.544 65.4817 85.6358 65.5162 85.7258C65.5235 85.7366 65.6052 85.931 65.6161 85.958C65.6723 86.0714 65.7304 86.1866 65.7885 86.3036Z" fill="black"/>
<path d="M65.4141 85.4057C65.4159 85.4183 65.4232 85.4345 65.4286 85.4489C65.1163 85.3247 64.7278 85.4129 64.5099 85.7297C64.3302 85.9889 64.2812 86.2769 64.3665 86.5774C64.47 86.9302 64.5753 87.2866 64.706 87.634C64.7423 87.7312 64.7786 87.8248 64.8167 87.922C64.4464 87.9166 64.076 87.7348 63.9071 87.3946C63.5567 86.7016 63.2408 86.0159 63.2136 85.2293C63.2027 84.9485 63.3189 84.6929 63.5077 84.4985C63.9598 84.9791 64.6207 85.0745 65.2561 84.7253C65.3378 84.8765 65.3868 85.0493 65.3923 85.2293C65.3941 85.2833 65.3923 85.3121 65.3923 85.3283C65.3977 85.3481 65.4032 85.3715 65.4141 85.4039V85.4057Z" fill="#CCCCCC"/>
<path d="M64.303 84.1489C64.7243 84.1489 65.0747 84.3832 65.2562 84.7256C64.6208 85.0753 63.9599 84.9797 63.5078 84.4986C63.7093 84.2841 63.9998 84.1489 64.303 84.1489Z" fill="black"/>
<path d="M64.0002 77.0972C63.6117 78.5335 63.2158 79.995 62.8073 81.4961C61.5035 81.9641 60.2215 82.4213 58.9432 82.8785C59.1175 82.6139 59.1702 82.2593 59.0903 81.9731C58.9596 81.5087 58.5238 81.1794 58.0389 81.1794H56.4047C55.8927 81.1794 55.4569 81.5447 55.3461 82.0199C55.1355 82.2197 54.9993 82.4951 54.9993 82.7993C54.9993 83.0009 55.0592 83.1935 55.1627 83.3591C54.5962 83.1287 54.1985 82.6841 53.8662 82.1801C53.2725 81.2838 52.6514 80.3946 52.1648 79.4424C50.5306 76.2404 48.9163 73.0275 47.3602 69.7877C46.8009 68.6249 46.4378 67.3686 46.0001 66.1483C45.9166 65.9161 45.9075 65.6551 45.873 65.4517C46.1872 64.9927 46.6466 64.9027 47.0533 64.7335C48.7747 64.0262 50.5034 63.3296 52.2284 62.6186C52.2937 62.5916 52.3591 62.5646 52.4245 62.5376C52.4789 62.5448 52.5371 62.5502 52.5933 62.5502C52.9529 62.5502 53.2743 62.372 53.474 62.1002C54.1241 61.8267 54.7759 61.5513 55.4296 61.2849C55.6221 61.2057 55.84 61.1823 56.1015 61.1211C58.4766 66.6018 61.4145 71.7532 64.0021 77.0989L64.0002 77.0972Z" fill="#F5E828"/>
<path d="M59.4787 84.3361C60.214 84.8598 60.007 86.3088 58.8541 86.3088C58.1134 86.3088 57.4053 86.3214 56.6918 86.541C55.6732 86.8542 55.0977 85.7364 55.4608 84.993C55.7495 84.9732 55.9855 84.7393 56.0817 84.4657C56.0926 84.4639 56.1035 84.4585 56.1144 84.4549C56.6028 84.3073 57.1003 84.2281 57.605 84.1885C57.7194 84.4639 57.9972 84.6817 58.3022 84.6709C58.5564 84.6601 58.8142 84.5899 59.0502 84.4981C59.1936 84.4441 59.3353 84.3865 59.4787 84.3343V84.3361Z" fill="#CCCCCC"/>
<path d="M59.4791 84.3364C59.3375 84.3904 59.1959 84.4481 59.0507 84.5004C58.8128 84.5923 58.555 84.6626 58.3027 84.6734C57.9976 84.6842 57.7199 84.4661 57.6055 84.1904C58.0194 84.1543 58.4388 84.1489 58.8546 84.1489C59.107 84.1489 59.3176 84.2192 59.4791 84.3364Z" fill="black"/>
<path d="M59.0887 81.9731C59.1668 82.2593 59.1159 82.6121 58.9416 82.8785C58.7837 82.9343 58.6275 82.9919 58.4696 83.0495C58.2953 83.1125 58.1065 83.1485 57.9449 83.2367C57.7724 83.3284 57.6507 83.485 57.5926 83.6632C57.4129 83.7982 57.1896 83.881 56.9481 83.881H56.0875C56.0657 83.881 56.044 83.881 56.0258 83.8792C55.9514 83.7514 55.837 83.638 55.6936 83.5552C55.6282 83.5174 55.561 83.4796 55.4902 83.4634C55.3758 83.4364 55.2669 83.404 55.1634 83.3608C55.0599 83.1953 55 83.0045 55 82.8011C55 82.4951 55.1362 82.2215 55.3468 82.0217C55.4575 81.5465 55.8933 81.1812 56.4053 81.1812H58.0393C58.524 81.1812 58.9598 81.5105 59.0905 81.9749L59.0887 81.9731Z" fill="#F5E828"/>
<path d="M58.4708 83.0477C58.6288 82.99 58.7849 82.9341 58.9429 82.8765C58.8557 83.0116 58.7395 83.1234 58.5888 83.19C58.3238 83.3126 58.0641 83.3955 57.7972 83.4658C57.7373 83.5397 57.672 83.6046 57.5957 83.6604C57.6538 83.482 57.7754 83.3252 57.9479 83.2333C58.1113 83.1468 58.3001 83.1089 58.4726 83.0459L58.4708 83.0477Z" fill="black"/>
<path d="M57.1834 36.0753C57.3595 36.5846 57.1526 36.9824 56.8076 37.2002C56.8076 37.1462 56.7967 37.0958 56.7749 37.049C56.666 36.7898 56.4645 36.6278 56.1721 36.6332C55.9906 36.6332 55.7963 36.6584 55.6238 36.716C55.4768 36.7682 55.3297 36.8168 55.1827 36.8654C55.1427 36.8006 55.1064 36.7286 55.0792 36.6476C54.4964 34.9683 53.6303 33.3322 52.6427 31.8527C52.4066 31.4999 51.9509 30.7889 51.4062 30.1445C51.4353 30.1607 51.4662 30.1805 51.497 30.1985C52.2342 30.6521 52.866 31.2245 53.4161 31.8869C53.7937 32.3458 54.146 32.8246 54.5218 33.2854C54.6598 33.4546 54.8105 33.6238 54.9829 33.7624C55.1845 33.9244 55.5058 33.9082 55.7183 33.7606C55.8871 33.6418 55.9851 33.433 55.9688 33.2296C56.4427 34.1547 56.8475 35.1105 57.1834 36.0789V36.0753Z" fill="white"/>
<path d="M56.774 37.0512C56.7958 37.0981 56.8067 37.1485 56.8067 37.2026C56.3129 37.5162 55.534 37.4675 55.1836 36.8674C55.3307 36.8187 55.4777 36.7701 55.6248 36.7178C55.7973 36.6583 55.9897 36.6349 56.1731 36.6349C56.4636 36.6295 56.6651 36.7917 56.7759 37.0512H56.774Z" fill="black"/>
<path d="M56.1191 84.1364C56.1318 84.2192 56.13 84.3002 56.11 84.383C56.1009 84.4118 56.0937 84.4424 56.0828 84.4694C55.7741 84.572 55.5743 84.7664 55.4618 84.9968C55.4418 84.9986 55.4236 84.9986 55.4036 84.9986C55.0405 84.986 54.6628 84.9104 54.3287 84.7718C53.8057 84.5594 53.3718 84.1922 53.0231 83.7458C52.7054 83.339 52.3858 82.9233 52.1225 82.4769C51.5578 81.5193 50.984 80.5636 50.4937 79.5664C49.0883 76.7081 47.6992 73.8373 46.3482 70.952C45.7218 69.6093 45.1952 68.2215 44.6268 66.8536C44.5433 66.6484 44.4671 66.4414 44.398 66.2308C43.9986 65.0213 44.3309 64.2329 45.4875 63.6893C45.8235 63.531 46.1848 63.4284 46.5425 63.3168C47.5013 63.0162 48.4509 62.6868 49.3933 62.3412C49.4605 62.3178 49.5313 62.289 49.6003 62.2656C50.2377 62.028 50.8732 61.7832 51.5051 61.5312C51.5323 62.0352 51.9282 62.46 52.4239 62.5392C52.3585 62.5662 52.2932 62.5932 52.2278 62.6202C50.5028 63.3312 48.7741 64.0259 47.0528 64.7351C46.646 64.9043 46.1866 64.9943 45.8725 65.4533C45.907 65.6549 45.9161 65.9176 45.9996 66.1498C46.4354 67.3702 46.8004 68.6265 47.3596 69.7893C48.914 73.0291 50.53 76.242 52.1643 79.444C52.6527 80.3962 53.2737 81.2853 53.8657 82.1817C54.198 82.6857 54.5956 83.132 55.1621 83.3606C55.3419 83.654 55.6597 83.8574 56.0265 83.879C56.0755 83.9618 56.1046 84.0482 56.1191 84.1382V84.1364Z" fill="black"/>
<path d="M55.9668 33.2277C55.9832 33.4329 55.8851 33.6399 55.7163 33.7587C55.5039 33.9081 55.1825 33.9243 54.981 33.7605C54.8103 33.6201 54.6596 33.4527 54.5198 33.2835C54.144 32.8209 53.7936 32.3439 53.4141 31.885C52.864 31.2244 52.2322 30.652 51.4951 30.1966C51.4642 30.1786 51.4351 30.1588 51.4043 30.1426C50.6871 29.2949 49.8102 28.5659 49.0531 28.9223C48.1907 29.3327 47.2321 28.6703 47.4518 27.7038C47.5444 27.3042 47.5062 26.937 47.4627 26.5554C47.6224 26.4204 47.784 26.2908 47.951 26.1612C48.276 25.9092 48.6537 25.7455 49.093 25.7671C49.231 25.7743 49.3817 25.7833 49.5088 25.7437C49.5524 25.8516 49.5814 25.9704 49.5923 26.1C49.6123 26.3214 49.6286 26.5284 49.6413 26.7354C50.4457 26.8056 51.1919 27.1782 51.8636 27.6966C51.6984 27.5886 51.5296 27.4878 51.3516 27.3942C50.9195 27.1584 50.4801 27.0072 49.9682 27.2448C49.7503 27.3474 49.4616 27.3258 49.2056 27.3258C48.7917 27.3258 48.5102 27.5004 48.247 27.9432C48.4957 27.9755 48.6591 28.0169 48.8189 28.0133C50.3077 27.9683 51.5913 28.4993 52.7514 29.3795C53.8771 30.2326 54.7395 31.318 55.5511 32.4447C55.6981 32.7039 55.8343 32.9631 55.965 33.2259L55.9668 33.2277Z" fill="black"/>
<path d="M55.9376 33.0717C55.954 33.1239 55.9649 33.1744 55.9667 33.2284C55.836 32.9653 55.6998 32.7058 55.5527 32.4463C55.6344 32.5544 55.7107 32.6644 55.7888 32.7725C55.8541 32.8626 55.9013 32.9671 55.9358 33.0698L55.9376 33.0717Z" fill="black"/>
<path d="M55.6921 83.5535C55.8374 83.6364 55.9518 83.75 56.0244 83.8779C55.6594 83.8563 55.3399 83.6526 55.1602 83.3589C55.2636 83.4021 55.3726 83.4346 55.487 83.4616C55.5578 83.4778 55.6268 83.5157 55.6903 83.5535H55.6921Z" fill="black"/>
<path d="M55.4609 84.9958C55.5735 84.7651 55.7732 84.5705 56.0819 84.4678C55.9856 84.7417 55.7496 84.976 55.4609 84.9958Z" fill="black"/>
<path d="M55.0068 11.9005C55.3555 13.9884 54.7817 15.7775 53.3054 17.2876C52.2032 18.4162 50.9576 19.3413 49.4759 19.9299C49.3397 19.9839 49.209 20.0559 49.0564 20.1315C48.864 21.2384 48.9838 22.3436 49.0637 23.4469C49.0946 23.8519 49.1654 24.2515 49.189 24.6565C49.2035 24.8815 49.149 25.0759 49.0365 25.2217C48.5135 24.9265 47.769 25.0399 47.5076 25.5636C46.1257 25.6266 44.7439 25.6716 43.3675 25.7724C42.8282 25.8138 42.2944 25.893 41.7587 25.9776C41.677 25.8606 41.5644 25.767 41.4282 25.7094C41.0415 25.5456 40.7183 25.4718 40.2988 25.551C40.0918 25.5924 39.9138 25.6788 39.7468 25.7886C39.6306 25.5744 39.6179 25.3026 39.7577 25.0435C39.8612 24.8509 40.0137 24.6871 40.139 24.5143C40.0192 23.6107 39.903 22.736 39.5834 21.872C39.0822 21.8522 38.5992 21.8144 38.1198 21.8288C37.5097 21.8432 37.0449 21.5984 36.6527 21.1574C35.7357 20.1207 34.9549 18.9993 34.4973 17.6818C34.412 17.4388 34.323 17.194 34.254 16.9456C34.0234 16.1321 33.5731 15.4823 32.8594 14.9981C32.558 14.7929 32.2766 14.5337 32.0351 14.2584C31.7518 13.9362 31.7918 13.5636 32.1186 13.2756C32.4818 12.957 32.8558 12.6492 33.2517 12.3738C33.8454 11.9671 34.136 11.4055 34.2504 10.7143C34.3865 9.87736 34.5681 9.0458 34.7043 8.20524C34.9168 6.9093 35.3235 5.69436 36.068 4.60181C36.1715 4.44882 36.3131 4.29942 36.3567 4.13023C36.5473 3.37427 37.1302 2.98008 37.7349 2.6039C39.0913 1.76694 40.5784 1.31876 42.16 1.16757C42.8264 1.10277 43.4983 1.06857 44.1665 1.01277C45.4121 0.915579 46.6251 1.08117 47.8144 1.43935C49.0474 1.81194 50.1241 2.45451 51.0357 3.36887C51.9399 4.27062 52.6699 5.29118 53.231 6.42872C54.0862 8.16744 54.6836 9.98896 55.0014 11.9005H55.0068ZM53.0312 14.9657C53.4834 14.2152 53.5832 13.3638 53.467 12.4926C53.1874 10.3759 52.5519 8.37263 51.4715 6.52952C51.0629 5.83295 50.5381 5.19038 49.9952 4.58561C49.0183 3.48766 47.74 2.90629 46.2964 2.6795C44.3844 2.37711 42.4996 2.5931 40.6402 3.03228C40.1354 3.15108 39.6596 3.38686 39.1803 3.58845C38.9842 3.67125 38.759 3.75585 38.7263 4.10503C39.3056 4.89159 39.8993 5.73575 40.5385 6.55112C41.1758 7.36828 41.8568 8.15484 42.5213 8.95221C42.5922 9.0386 42.6811 9.1088 42.7501 9.1952C42.9626 9.46338 43.0007 9.73337 42.87 9.96196C42.85 9.99256 42.8319 10.0214 42.8101 10.0484C42.7955 10.0646 42.7828 10.0808 42.7683 10.097C42.5395 10.3345 42.1582 10.3939 41.8477 10.1779C41.5753 9.98896 41.3102 9.76757 41.1032 9.51198C40.5857 8.88201 40.1009 8.22324 39.6052 7.57527C39.1312 6.9597 38.6718 6.32793 38.1761 5.72856C38.0236 5.54856 37.7676 5.45317 37.5497 5.30918C36.7253 6.16054 36.3077 7.13429 36.0625 8.19264C35.8283 9.20239 35.6031 10.2121 35.3979 11.2273C35.2345 12.0265 34.855 12.669 34.2013 13.1712C33.9507 13.3656 33.6076 13.5114 33.5694 13.9812C34.7406 14.6633 35.3017 15.8189 35.7284 17.0662C35.7865 17.2426 35.8701 17.4064 35.9427 17.5774C36.3985 18.6142 37.1048 19.4619 37.9328 20.2323C38.2034 20.2503 38.4648 20.2863 38.7227 20.2809C39.0568 20.2719 39.3927 20.2341 39.725 20.1999C40.6493 20.0991 40.9271 20.2863 41.1159 21.2006C41.2448 21.8162 41.3102 22.4462 41.4591 23.0546C41.5735 23.5117 41.5408 24.0157 41.8949 24.4747C42.2435 24.4585 42.614 24.4423 42.9808 24.4171C43.9504 24.3577 44.9164 24.2965 45.886 24.2371C46.2601 24.2155 46.6323 24.2137 47.0028 24.1687C47.2098 24.1471 47.4095 24.0607 47.6201 23.9977C47.5693 23.3713 47.5293 22.8206 47.4785 22.2734C47.424 21.6938 47.5221 21.0944 47.2679 20.4951C46.9664 20.4771 46.6705 20.4519 46.3781 20.4447C45.196 20.4123 44.1065 20.0721 43.0897 19.4835C42.6339 19.2189 42.5776 18.7708 42.9426 18.3748C42.9662 18.3478 42.9989 18.3244 43.0298 18.3046C43.4837 18.0292 43.6399 17.563 43.7543 17.0986C43.8451 16.7422 43.9086 16.3643 43.8868 16.0025C43.8487 15.3437 44.0793 14.8613 44.6349 14.5067C44.8855 14.3502 45.1198 14.1684 45.3486 13.9848C46.1257 13.3656 46.3182 12.327 45.8225 11.4847C45.4993 10.9339 45.0362 10.7305 44.4025 10.8817C44.2228 10.9249 44.063 11.0329 43.8814 11.0761C43.4456 11.1733 43.0788 10.7845 43.1678 10.3399C43.1878 10.2445 43.2168 10.1635 43.2586 10.0952C43.2749 10.0682 43.2912 10.043 43.3112 10.0196C43.4383 9.84676 43.6272 9.74237 43.8451 9.66857C45.1089 9.25279 46.3527 9.74957 46.9882 10.9195C47.7636 12.3522 47.3768 14.0892 46.0476 15.0935C45.817 15.2699 45.5592 15.4121 45.403 15.5147C45.1688 16.6271 44.9563 17.6296 44.7312 18.6898C45.5047 19.0407 46.3436 19.1523 47.2025 19.0353C49.8409 18.6736 51.6966 17.1688 53.0258 14.9693L53.0312 14.9657Z" fill="black"/>
<path d="M55.5541 32.4466C54.7425 31.3216 53.8801 30.2345 52.7545 29.3813C51.5943 28.5011 50.3125 27.9702 48.8219 28.0152C48.6621 28.0188 48.4969 27.9774 48.25 27.945C48.5133 27.5022 48.7947 27.3276 49.2086 27.3276C49.4646 27.3276 49.7533 27.3492 49.9712 27.2466C50.4832 27.009 50.9207 27.1602 51.3546 27.396C51.5326 27.4896 51.7014 27.5904 51.8666 27.6984C52.5257 28.2078 53.1139 28.8575 53.6132 29.4965C54.3304 30.4199 54.9822 31.4116 55.5559 32.4484L55.5541 32.4466Z" fill="white"/>
<path d="M53.6808 60.6494V61.4702C53.6808 61.7024 53.6009 61.922 53.472 62.1001C53.1234 62.2477 52.7712 62.3935 52.4226 62.5375C51.9269 62.4583 51.533 62.0353 51.5039 61.5296C52.1012 61.2956 52.6913 61.0544 53.285 60.8114C53.4157 60.7574 53.5501 60.7034 53.6808 60.6494Z" fill="black"/>
<path d="M53.6806 60.1199V60.6491C53.5499 60.7031 53.4156 60.7571 53.2849 60.8111C52.6912 61.0541 52.1011 61.2953 51.5038 61.5292C51.5019 61.5112 51.502 61.4896 51.502 61.4698V60.1199C51.502 59.7581 51.6908 59.4341 51.9704 59.2397C52.0103 59.4791 52.0793 59.7437 52.2246 59.9273C52.3389 60.0749 52.5895 60.1667 52.791 60.1883C52.8673 60.1973 52.9435 60.1829 53.0143 60.1523C53.1832 60.0803 53.3193 59.9129 53.3411 59.7275C53.3538 59.6033 53.3611 59.4773 53.3538 59.3495C53.5554 59.5457 53.6806 59.8193 53.6806 60.1163V60.1199Z" fill="#CCCCCC"/>
<path d="M53.1309 53.7739C53.5666 54.0205 53.7246 54.5605 53.6065 55.0213C53.5412 54.8575 53.4776 54.6919 53.4159 54.5281C53.3179 54.2779 53.2235 54.0259 53.1309 53.7757V53.7739Z" fill="black"/>
<path d="M53.4153 54.5262C53.4771 54.6918 53.5406 54.8556 53.606 55.0194C53.5243 55.3433 53.3064 55.6295 52.9524 55.7429C52.9687 55.4963 53.0014 55.2515 53.0558 55.0068C53.0831 54.8898 53.0667 54.7746 53.0232 54.672C52.9306 54.4668 52.7218 54.3138 52.4894 54.3084C52.1934 54.2994 51.8975 54.2868 51.6016 54.321C51.7359 53.943 52.0645 53.6406 52.5911 53.6406C52.8035 53.6406 52.9832 53.6892 53.1303 53.7738C53.2229 54.024 53.3173 54.276 53.4153 54.5262Z" fill="white"/>
<path d="M53.4649 12.4928C53.5811 13.3639 53.4813 14.2153 53.0291 14.9659C51.6999 17.1654 49.8442 18.6701 47.2058 19.0319C46.3469 19.1489 45.508 19.0373 44.7345 18.6863C44.9615 17.6261 45.1721 16.6236 45.4064 15.5112C45.5643 15.4086 45.8204 15.2646 46.051 15.09C47.3801 14.0857 47.7669 12.3506 46.9916 10.916C46.356 9.7461 45.1122 9.25112 43.8484 9.6651C43.6305 9.7389 43.5833 10.6983 43.4743 10.9736L41.7838 10.1349C41.6894 9.58591 42.955 9.45991 42.7426 9.19352C42.6754 9.10713 42.5846 9.03693 42.5138 8.95054C41.8492 8.15497 41.1683 7.36841 40.5309 6.54945C39.8936 5.73409 39.2998 4.88993 38.7188 4.10336C38.7514 3.75418 38.9766 3.67138 39.1727 3.58679C39.6521 3.3852 40.1278 3.14941 40.6326 3.03061C42.492 2.59143 44.3768 2.37544 46.2888 2.67783C47.7324 2.90462 49.0089 3.48419 49.9876 4.58394C50.5306 5.18871 51.0553 5.83128 51.4639 6.52785C52.5443 8.37276 53.1798 10.3761 53.4595 12.491L53.4649 12.4928Z" fill="black"/>
<path d="M53.4693 62.1001C53.2696 62.3722 52.9483 62.5506 52.5888 62.5506C52.5325 62.5506 52.4744 62.5452 52.4199 62.538C52.7685 62.3957 53.1207 62.2479 53.4693 62.1001Z" fill="#CCCCCC"/>
<path d="M53.3542 59.3535C53.3596 59.4795 53.3542 59.6073 53.3415 59.7315C53.3197 59.9151 53.1835 60.0825 53.0147 60.1563C52.9439 60.1869 52.8676 60.1995 52.7913 60.1923C52.5898 60.1707 52.3393 60.0789 52.2249 59.9313C52.0796 59.7477 52.0125 59.4831 51.9707 59.2437C52.1468 59.1159 52.3629 59.0439 52.5916 59.0439C52.8858 59.0439 53.1563 59.1663 53.3542 59.3571V59.3535Z" fill="black"/>
<path d="M53.3206 58.9631C53.337 59.0909 53.3515 59.2223 53.3533 59.3555C53.1554 59.1647 52.8848 59.0423 52.5907 59.0423C52.3619 59.0423 52.1458 59.1143 51.9697 59.2421C51.966 59.2331 51.966 59.2223 51.9642 59.2151C51.8226 58.3763 51.7136 57.534 51.5829 56.6916C51.5502 56.4774 51.4885 56.274 51.4286 56.0292C50.4807 56.2506 49.5783 56.4612 48.6068 56.688C48.6467 56.9526 48.6649 57.1632 48.7157 57.363C48.9318 58.1873 49.1661 59.0045 49.3785 59.8289C49.4511 60.115 49.5147 60.4066 49.5274 60.6982C49.5383 60.9376 49.413 61.1464 49.2278 61.2742C49.1697 61.3138 49.1061 61.3462 49.0335 61.3696C48.6976 61.474 48.3199 61.3714 48.1492 61.078C48.0203 60.8602 47.9295 60.6082 47.8659 60.3634C47.648 59.5013 47.4519 58.6355 47.2431 57.7716C47.1832 57.525 47.1015 57.2838 47.0107 56.9778C45.4309 57.1758 43.8893 57.4098 42.3368 57.5556C40.8206 57.696 39.2917 57.7446 37.6793 57.8382C37.5104 58.3619 37.4378 58.9325 37.4868 59.5229C37.5594 60.403 37.6284 61.285 37.6829 62.1688C37.6212 62.1544 37.5558 62.1454 37.4868 62.1381C37.0565 62.1004 36.6697 62.3883 36.4681 62.7573C36.4173 62.6277 36.3737 62.4873 36.3138 62.3451C36.1231 62.3667 35.9452 62.3775 35.769 62.4045C32.5187 62.9337 29.3266 63.6789 26.2433 64.8344C25.9691 64.9406 25.7004 65.072 25.4407 65.207C24.689 65.5904 24.068 65.3114 23.979 64.4996C23.8029 62.8743 23.2981 61.3192 22.9386 59.7335C22.9059 59.5913 22.8351 59.4581 22.7642 59.2727C20.9884 59.1863 19.8735 58.0811 18.9619 56.7132C18.0014 55.2769 17.404 53.6839 17.0372 52.0082C16.9446 51.5816 16.95 51.1281 16.9609 50.6853C16.9718 50.3469 17.2024 50.1381 17.473 50.1381C17.493 50.1381 17.5111 50.1381 17.5311 50.1399C17.7889 50.1687 17.9887 50.3829 17.9814 50.6889C17.916 52.6544 18.695 54.3355 19.7028 55.932C19.7682 56.0436 19.839 56.1498 19.9098 56.2596C20.3583 56.9454 20.9285 57.5412 21.6984 57.8957C21.8908 57.9839 22.1124 58.0145 22.3757 58.0865C22.3757 57.5106 22.4519 56.9958 22.3539 56.5116C22.2722 56.1048 22.3593 55.7988 22.53 55.4623C22.9113 54.7009 23.2781 53.9305 23.6358 53.1584C23.7066 53.0072 23.7121 52.8236 23.7793 52.4924C23.4833 52.6886 23.3181 52.7696 23.1891 52.8884C22.8351 53.216 22.4864 53.5508 22.1523 53.8981C21.6947 54.3823 21.199 54.8377 21.1246 55.5667C21.1028 55.797 20.8849 55.9392 20.6379 55.9482C20.4582 55.9554 20.2566 55.8186 20.1676 55.6441C20.1404 55.5847 20.1241 55.5217 20.1241 55.4569C20.1295 55.2049 20.164 54.9403 20.2566 54.7081C20.3528 54.4741 20.5072 54.2491 20.6815 54.0601C21.3098 53.378 21.938 52.6886 22.6081 52.046C22.924 51.7436 23.3126 51.4916 23.7121 51.3045C24.4384 50.9589 25.1012 51.4197 25.0213 52.2188C24.9868 52.5806 24.8688 52.946 24.7253 53.2826C24.4094 54.0331 24.0771 54.7783 23.7103 55.5037C23.5087 55.8978 23.4996 56.2542 23.6177 56.6718C24.1951 58.7021 24.7435 60.7378 25.3064 62.7699C25.3554 62.9427 25.4407 63.1047 25.5079 63.2721C25.6568 63.2721 25.7748 63.3009 25.8693 63.2703C28.5657 62.3649 31.3403 61.8034 34.1439 61.3426C34.8321 61.2292 35.5493 61.1806 36.1976 60.9016C36.2266 60.7504 36.2684 60.6424 36.2684 60.5362C36.2502 59.5787 36.2248 58.6229 36.2012 57.6366C35.8235 57.5394 35.464 57.4458 35.1045 57.3576C33.5356 56.9814 32.4843 56.0994 31.9486 54.5317C30.939 51.569 30.2308 48.5578 30.1183 45.4223C30.0474 43.4172 30.1764 41.4247 30.8537 39.5078C31.0988 38.8184 31.126 38.1597 30.9354 37.4505C30.7102 36.5919 30.5795 35.7118 30.3943 34.8424C30.3343 34.5562 30.2472 34.279 30.1618 33.9713C29.9657 34.0019 29.8132 33.9983 29.6825 34.0487C26.7572 35.1898 23.6921 35.8774 20.6742 36.7161C20.2439 36.8349 19.8081 36.9465 19.3905 37.0995C19.1562 37.1823 18.9547 37.3479 18.7531 37.4667C18.7531 37.6395 18.7295 37.7547 18.7549 37.8573C19.4159 40.2854 20.0841 42.7117 20.7523 45.1397C20.7905 45.2747 20.8576 45.4043 20.9266 45.5771C21.1336 45.5429 21.3116 45.5123 21.4877 45.4853C21.7438 45.4457 21.9998 45.3827 22.2558 45.3701C22.6044 45.3503 22.9313 45.4385 23.1546 45.7265C23.3816 46.0181 23.1565 46.2863 23.0784 46.5761C23.2255 46.7327 23.3998 46.8785 23.5196 47.0603C23.6177 47.2096 23.6794 47.395 23.7012 47.5714C23.7466 47.9386 23.427 48.2014 23.0566 48.1042C22.8841 48.0574 22.7261 47.9548 22.5137 47.8558C21.3043 48.8152 20.1549 49.7925 19.6302 51.3045C19.5085 51.6554 19.2053 51.7868 18.9365 51.6608C18.6442 51.5222 18.4916 51.2307 18.6079 50.9211C18.7077 50.6457 18.853 50.3847 19.0055 50.1309C19.6774 49.0024 20.5798 48.07 21.5949 47.242C21.8473 47.0333 22.1069 46.8317 22.4465 46.5635C21.9072 46.4015 21.5531 46.5311 21.2317 46.7957C21.1482 46.8659 21.101 47.0225 21.0156 47.0387C19.7827 47.287 19.2561 48.3202 18.5734 49.1806C18.4826 49.2939 18.4226 49.4361 18.3319 49.5495C18.1811 49.7367 17.9269 49.7691 17.7326 49.6503C17.5111 49.5189 17.4058 49.3047 17.4821 49.087C17.5801 48.8134 17.7236 48.5416 17.9124 48.322C18.4626 47.6704 19.0418 47.0459 19.6683 46.3421C19.6392 46.1621 19.6138 45.9065 19.5521 45.6653C18.9057 43.194 18.2556 40.7245 17.3023 38.3451C17.2042 38.1057 17.1171 37.8573 17.0681 37.6053C16.9301 36.9303 17.2787 36.2356 17.9124 35.953C18.2501 35.8054 18.6151 35.7046 18.971 35.6074C21.0211 35.0404 23.0693 34.4734 25.123 33.9263C26.6773 33.5105 28.1644 32.9183 29.6552 32.3225C29.9948 32.1857 30.3579 32.0669 30.7229 32.0255C31.4529 31.9446 31.8269 32.2595 31.7525 32.9633C31.6544 33.8813 31.9522 34.7182 32.1447 35.5786C32.1665 35.6704 32.2573 35.746 32.3608 35.8954C32.4879 35.7064 32.6005 35.5624 32.6894 35.413C34.0894 33.0929 35.484 30.771 36.8839 28.4545C37.0746 28.1359 37.2635 27.8119 37.5031 27.5312C37.6629 27.3386 37.8899 27.1838 38.1151 27.0686C38.2894 26.9804 38.4819 26.9768 38.658 27.0452C38.6344 27.0938 38.609 27.1406 38.5835 27.1856C38.3493 27.6428 38.4147 28.1917 38.7905 28.5283C38.2059 29.1871 37.8191 29.9772 37.367 30.726C36.1758 32.6915 34.9864 34.6624 33.8279 36.6477C32.3317 39.2072 31.6617 41.9719 31.7125 44.9328C31.7525 47.323 32.1592 49.6449 32.8256 51.9272C33.0435 52.6724 33.3177 53.4014 33.5229 54.1519C33.7898 55.1113 34.4362 55.6369 35.3641 55.905C36.8513 56.3298 38.3765 56.5152 39.9073 56.4018C41.9137 56.2506 43.9111 55.9626 45.9121 55.7215C46.1645 55.6927 46.4133 55.6081 46.7383 55.5289C46.7075 55.2823 46.6966 55.0717 46.6566 54.8701C46.2208 52.6922 45.7414 50.5233 45.3529 48.3364C44.819 45.3503 44.3614 42.3463 44.1817 39.3134C44.0818 37.6539 44.06 35.9782 44.1635 34.3186C44.267 32.6645 44.5412 31.0194 45.1931 29.4535C45.6906 28.2601 46.5186 27.3638 47.4719 26.5664C47.5155 26.948 47.5536 27.3134 47.461 27.7148C47.2413 28.6813 48.2001 29.3419 49.0626 28.9333C49.8198 28.5769 50.6968 29.3059 51.414 30.1536C50.1956 29.4265 48.9028 29.2897 47.5137 29.7055C47.372 30.0546 47.3121 30.4542 47.0833 30.699C46.8836 30.9096 46.495 30.9474 46.1355 31.0788C45.7741 32.4107 45.5581 33.7931 45.5145 35.2024C45.4328 37.7277 45.6652 40.2314 45.9684 42.7333C46.2027 44.6808 46.4678 46.6247 46.7983 48.5578C47.1305 50.4909 47.5609 52.4042 47.9549 54.3265C48.0039 54.5767 48.0966 54.8215 48.1928 55.1365C48.4016 55.1365 48.6249 55.1797 48.8247 55.1293C49.5782 54.9295 50.3445 54.7423 51.0708 54.4615C51.2506 54.3913 51.4304 54.3535 51.6065 54.3319C51.3868 54.9673 51.7155 55.8114 52.5961 55.8114C52.7305 55.8114 52.8485 55.7916 52.9593 55.7556C52.8957 56.8428 53.1935 57.903 53.3261 58.9739L53.3206 58.9631Z" fill="black"/>
<path d="M53.0226 54.6717C53.0662 54.7743 53.0825 54.8895 53.0553 55.0065C53.0008 55.253 52.9681 55.4978 52.9518 55.7426C52.8429 55.7804 52.723 55.7984 52.5887 55.7984C51.7081 55.7984 51.3795 54.9525 51.5992 54.3189C51.8951 54.2847 52.1911 54.2973 52.487 54.3063C52.7194 54.3117 52.9282 54.4647 53.0208 54.6699L53.0226 54.6717Z" fill="black"/>
<path d="M51.9643 59.213C51.9643 59.213 51.9661 59.2328 51.9697 59.24C51.6901 59.4344 51.5013 59.7584 51.5013 60.1202V61.4701C51.5013 61.4899 51.5013 61.5115 51.5031 61.5295C50.8713 61.7815 50.2377 62.0263 49.5986 62.2639C49.5314 62.2873 49.4606 62.3161 49.3916 62.3395L49.0321 61.3657C49.1029 61.3441 49.1683 61.3117 49.2264 61.2703C49.4116 61.1444 49.5369 60.9356 49.526 60.6944C49.5133 60.4028 49.4497 60.1112 49.3771 59.825C49.1647 59.0024 48.9305 58.1835 48.7144 57.3591C48.6636 57.1593 48.6472 56.9487 48.6055 56.6842C49.5786 56.4574 50.4791 56.2468 51.4269 56.0254C51.4868 56.2684 51.5485 56.4736 51.5812 56.6878C51.7119 57.5301 51.8209 58.3725 51.9625 59.2112L51.9643 59.213Z" fill="#CCCCCC"/>
<path d="M49.5092 25.7453C49.3803 25.7849 49.2314 25.7777 49.0934 25.7687C48.6541 25.7471 48.2764 25.9109 47.9514 26.1629C47.7862 26.2925 47.6246 26.4221 47.463 26.5571C47.4449 26.4077 47.4267 26.2565 47.414 26.0999C47.3977 25.8893 47.434 25.7075 47.5066 25.5617C47.5811 25.5563 47.65 25.5527 47.7245 25.5509C47.9859 25.5365 48.251 25.5581 48.507 25.5185C48.7358 25.4807 48.9173 25.3745 49.0353 25.2197C49.2387 25.3331 49.4112 25.5077 49.5092 25.7435V25.7453Z" fill="white"/>
<path d="M49.0365 25.2216C48.9185 25.3784 48.737 25.4829 48.5082 25.5208C48.2522 25.5604 47.9871 25.5388 47.7257 25.5532C47.6531 25.555 47.5823 25.5586 47.5078 25.564C47.7693 25.0396 48.5136 24.926 49.0365 25.2216Z" fill="black"/>
<path d="M41.757 25.9777C42.0075 26.3179 42.0221 26.8417 41.8169 27.1873C41.5881 27.576 41.2123 27.7218 40.8201 27.6948C40.7984 27.7146 40.7766 27.7344 40.7657 27.7488C40.7657 27.7488 40.7639 27.7506 40.7602 27.7542C40.7602 27.7542 40.7548 27.7614 40.7493 27.7704C40.7094 27.8316 40.6658 27.8946 40.6277 27.9594C40.5678 28.0584 40.5115 28.161 40.457 28.2672C40.1901 28.791 39.4566 28.9386 38.9664 28.6542C38.8993 28.6164 38.8375 28.5696 38.7831 28.5192C38.8393 28.4508 38.9029 28.3842 38.9664 28.3194C39.0173 28.269 39.0609 28.2042 39.0917 28.1358C39.2224 27.8442 39.2115 27.5598 39.0082 27.3025C38.9102 27.1819 38.7849 27.0883 38.6523 27.0379C38.8502 26.6689 39.1008 26.2765 39.4312 26.0227C39.5347 25.9417 39.6382 25.8607 39.7471 25.7905C39.867 26.0011 40.0903 26.1559 40.3826 26.1739C40.5641 26.1847 40.7493 26.1289 40.9327 26.1037C41.2087 26.0659 41.4846 26.0227 41.7606 25.9795L41.757 25.9777Z" fill="white"/>
<path d="M41.4291 25.7113C41.5653 25.7689 41.6779 25.8627 41.7596 25.9798C41.4836 26.0231 41.2076 26.0663 40.9317 26.1042C40.7483 26.1276 40.5631 26.1853 40.3815 26.1744C40.0892 26.1564 39.8677 26.0014 39.7461 25.7906C39.9149 25.6806 40.0929 25.5941 40.298 25.5527C40.7174 25.4752 41.0406 25.5473 41.4273 25.7113H41.4291Z" fill="black"/>
<path d="M38.5418 64.5643C38.5273 64.5841 38.5145 64.6003 38.5 64.6219C38.4183 64.7371 38.3457 64.8595 38.2767 64.9855C37.8464 65.8027 36.6917 65.5957 36.3486 64.8811C36.403 64.7857 36.4575 64.6903 36.5065 64.5895C36.5828 64.4275 36.6372 64.2512 36.7244 64.0208C36.581 63.8336 36.4593 63.6158 36.2832 63.4646C36.2941 63.3386 36.3141 63.2144 36.3377 63.092C36.3613 62.9768 36.4048 62.8634 36.4648 62.7536C36.512 62.8724 36.561 62.984 36.6282 63.083C36.8842 63.4502 37.4851 63.3638 37.6158 62.9372C37.6885 62.6996 37.6921 62.4296 37.6776 62.1795V62.1669C37.723 62.1777 37.7683 62.1885 37.8119 62.2029C38.2331 61.9221 38.825 61.9617 39.1954 62.3306C39.6148 62.7464 39.6148 63.443 39.1954 63.8588C39.0066 64.0442 38.8214 64.2314 38.6507 64.4311C38.6307 64.4527 38.5418 64.5679 38.5382 64.5679L38.5418 64.5643Z" fill="#CCCCCC"/>
<path d="M39.0063 27.3006C39.2096 27.5598 39.2205 27.8441 39.0898 28.1339C39.0589 28.2023 39.0154 28.2671 38.9645 28.3175C38.901 28.3823 38.8393 28.4507 38.7812 28.5173C38.4053 28.1825 38.34 27.6318 38.5742 27.1746C38.5978 27.1296 38.6232 27.0828 38.6486 27.0342C38.7812 27.0864 38.9064 27.1782 39.0045 27.2988L39.0063 27.3006Z" fill="black"/>
<path d="M37.2781 10.4785C37.5341 10.4803 37.7774 10.7323 37.7592 10.9807C37.7429 11.2201 37.4814 11.4685 37.2454 11.4685C37.0094 11.4685 36.7461 11.1985 36.7624 10.9591C36.7824 10.7107 37.0293 10.4785 37.2781 10.4785Z" fill="black"/>
<path d="M37.6816 62.1774C37.6961 62.4276 37.6925 62.6976 37.6198 62.9352C37.4891 63.3618 36.8863 63.4482 36.6322 63.081C36.565 62.982 36.5141 62.8704 36.4688 62.7516C36.6703 62.3844 37.057 62.0964 37.4873 62.1324C37.5545 62.1378 37.6198 62.1486 37.6834 62.163V62.1756L37.6816 62.1774Z" fill="black"/>
<path d="M36.7237 64.0189C36.6366 64.2511 36.5821 64.4275 36.5059 64.5877C36.4568 64.6885 36.4024 64.7857 36.3479 64.8793C36.2825 64.7497 36.248 64.6021 36.248 64.4383C36.248 64.1143 36.248 63.7849 36.2844 63.4609C36.4605 63.6121 36.5803 63.8299 36.7255 64.0171L36.7237 64.0189Z" fill="black"/>
<path d="M36.2647 63.4465C36.2647 63.4465 36.2792 63.4573 36.2847 63.4627C36.2483 63.7867 36.2483 64.1161 36.2483 64.4401C36.2483 64.6021 36.2847 64.7515 36.3482 64.8811C36.2338 65.0755 36.1158 65.2663 36.0559 65.475C35.4221 67.6853 34.4979 69.7912 33.6735 71.9331C31.1677 78.4254 28.5838 84.8925 26.1724 91.4208C23.1182 99.6861 20.2148 108.007 17.226 116.296C16.0203 119.638 14.7546 122.957 13.5163 126.285C13.371 126.301 13.2275 126.345 13.0914 126.417C12.5847 126.692 12.1835 127.122 11.9093 127.621C11.6587 127.443 11.537 127.124 11.6078 126.778C11.6369 126.636 11.7005 126.501 11.7549 126.363C14.8654 118.592 17.7852 110.752 20.5271 102.847C24.0606 92.6682 27.7776 82.558 31.7742 72.5487C32.2263 71.413 32.6894 70.2808 33.1542 69.1523C33.7098 67.8149 34.2255 66.4686 34.5814 65.0665C34.7285 64.4815 34.9664 63.9433 35.4367 63.5383C35.6727 63.3331 36.0413 63.2683 36.2647 63.4465Z" fill="black"/>
<path d="M24.4953 49.4881C24.5934 49.7239 24.5316 49.9291 24.3592 50.0965C24.1776 50.2747 23.9543 50.2675 23.7473 50.1433C23.5948 50.0533 23.4604 49.9327 23.3479 49.8427C22.7978 50.0155 22.4728 50.3773 22.1532 50.7336C21.3344 51.6462 20.6209 52.6325 20.118 53.7575C20.0617 53.8925 20.009 54.0635 19.9001 54.1301C19.7585 54.2165 19.5406 54.2867 19.3954 54.2417C19.2519 54.1931 19.0686 53.9933 19.0667 53.8583C19.0613 53.6135 19.123 53.3345 19.2519 53.1275C19.6931 52.404 20.1561 51.6894 20.6517 50.9982C20.9949 50.5176 21.3762 50.0587 21.7956 49.6393C22.1042 49.3315 22.4746 49.0597 22.8613 48.8563C23.5258 48.5053 24.2121 48.7987 24.4971 49.4899L24.4953 49.4881Z" fill="black"/>
<path d="M14.5823 126.802C14.8764 127.299 14.713 127.997 14.1919 128.279C14.152 128.301 14.1138 128.324 14.0775 128.35C14.063 128.36 14.0448 128.377 14.0122 128.407C13.9595 128.461 13.9105 128.515 13.8615 128.571C13.9214 128.506 13.9105 128.528 13.8324 128.636C13.7398 128.801 13.7307 128.798 13.6962 128.926C13.6763 128.99 13.6599 129.055 13.6472 129.12C13.6509 129.136 13.6472 129.174 13.6418 129.239C13.6418 129.266 13.64 129.291 13.6363 129.314C13.3967 129.32 13.1534 129.325 12.9137 129.334C12.8012 129.338 12.6904 129.345 12.5815 129.367C12.1566 129.446 11.8571 129.674 11.7554 129.971C11.5666 129.781 11.454 129.521 11.4613 129.241C11.4812 128.688 11.6356 128.121 11.9079 127.624C11.9515 127.658 11.9987 127.687 12.0477 127.707C12.4253 127.874 12.8756 127.725 13.0953 127.32C13.2514 127.027 13.3567 126.708 13.4729 126.395C13.4875 126.361 13.5002 126.323 13.5147 126.287C13.9305 126.238 14.3535 126.422 14.5804 126.805L14.5823 126.802Z" fill="#CCCCCC"/>
<path d="M12.9143 129.332C13.154 129.325 13.3955 129.318 13.6369 129.312C13.5825 129.869 13.1322 130.317 12.553 130.317C12.2498 130.317 11.963 130.182 11.7578 129.968C11.8595 129.671 12.1572 129.442 12.5839 129.363C12.6928 129.341 12.8036 129.334 12.9162 129.331L12.9143 129.332Z" fill="black"/>
<path d="M13.5169 126.283C13.5024 126.319 13.4897 126.357 13.4752 126.391C13.359 126.704 13.2519 127.023 13.0975 127.316C12.8779 127.721 12.4276 127.871 12.05 127.703C12.0009 127.682 11.9537 127.655 11.9102 127.621C12.1861 127.12 12.5856 126.692 13.0921 126.416C13.2283 126.344 13.3717 126.301 13.5169 126.285V126.283Z" fill="black"/>
</svg>
