<svg width="176" height="62" viewBox="0 0 176 62" fill="none" xmlns="http://www.w3.org/2000/svg">
<path d="M45.261 7.45801C46.9137 5.69425 46.4233 2.81976 44.2742 1.72733C38.0992 -1.4157 30.3623 -0.262238 25.3618 5.05955C20.3613 10.3813 19.6348 18.2297 23.0795 24.2778C24.2781 26.3833 27.1538 26.7251 28.8065 24.9613L45.2549 7.45801H45.261Z" fill="#F5E828"/>
<path d="M23.1589 30.9604C24.9871 29.0441 28.117 29.3981 29.4912 31.6684C34.0619 39.2116 33.2265 49.19 26.8639 55.8666C20.5073 62.5433 10.6515 63.7883 2.98729 59.4979C0.680754 58.204 0.202496 55.0671 2.03077 53.1447L23.1589 30.9604Z" fill="#F5E828"/>
<path d="M40.0496 28.8429C40.0012 26.4078 42.2956 24.6074 44.6263 25.2544C51.3643 27.1341 56.3769 33.292 56.5283 40.6949C56.6796 48.1039 51.9213 54.4631 45.262 56.6114C42.9615 57.3559 40.5944 55.6532 40.546 53.2181L40.0556 28.8368L40.0496 28.8429Z" fill="#C8C8C8"/>
<path d="M78.0318 31.7966C77.7291 32.1933 77.1721 32.2299 76.7847 31.9125C75.9916 31.2473 75.1864 31.1741 74.7203 31.1741C72.9828 31.1741 72.438 32.2726 72.438 33.1209C72.438 33.5237 72.559 33.896 72.9586 34.2439C73.3581 34.6161 73.903 34.8175 74.9382 35.1959C76.2277 35.6475 77.4385 36.0931 78.286 36.8681C79.0306 37.5456 79.6966 38.6685 79.6966 40.3651C79.6966 43.6119 77.3658 45.8334 73.9454 45.8334C71.3785 45.8334 69.7076 44.509 68.7269 43.3251C68.4363 42.9772 68.4726 42.4645 68.7935 42.1533L69.6108 41.366C69.974 41.0181 70.5431 41.0731 70.8639 41.4698C71.6994 42.489 72.8738 42.8857 73.8182 42.8857C75.2833 42.8857 76.373 41.9885 76.373 40.5848C76.373 39.9867 76.1732 39.5107 75.7313 39.0835C75.1138 38.5098 74.1209 38.1864 73.1765 37.8568C72.3108 37.5578 71.2696 37.155 70.4281 36.4104C69.8832 35.9344 69.1144 35.0128 69.1144 33.3101C69.1144 30.8628 70.7489 28.4155 74.4176 28.4155C75.3378 28.4155 76.9723 28.5742 78.504 29.8131C78.8551 30.0999 78.9035 30.6248 78.6311 30.991L78.0257 31.7905L78.0318 31.7966Z" fill="#585757"/>
<path d="M88.3714 28.8003C88.8436 28.8003 89.2189 29.1848 89.2189 29.6547V39.2669C89.2189 40.5424 89.6427 41.3175 90.012 41.7386C90.4842 42.3123 91.3499 42.8859 92.6394 42.8859C93.9289 42.8859 94.7946 42.3123 95.2668 41.7386C95.636 41.3114 96.0598 40.5424 96.0598 39.2669V29.6547C96.0598 29.1787 96.4412 28.8003 96.9074 28.8003H98.4269C98.8991 28.8003 99.2744 29.1848 99.2744 29.6547V38.9922C99.2744 40.5668 99.0262 42.1658 98.0334 43.4413C96.8468 45.0159 94.7643 45.8398 92.6333 45.8398C90.5023 45.8398 88.4198 45.0159 87.2332 43.4413C86.2404 42.1658 85.9922 40.5668 85.9922 38.9922V29.6547C85.9922 29.1787 86.3736 28.8003 86.8397 28.8003H88.3593H88.3714Z" fill="#585757"/>
<path d="M105.559 44.607V29.6547C105.559 29.1787 105.94 28.8003 106.406 28.8003H107.411C107.647 28.8003 107.877 28.904 108.041 29.081L116.371 38.2843C116.891 38.8641 117.848 38.4918 117.848 37.7045V29.6547C117.848 29.1787 118.229 28.8003 118.696 28.8003H120.215C120.687 28.8003 121.063 29.1848 121.063 29.6547V44.607C121.063 45.083 120.681 45.4614 120.215 45.4614H119.21C118.968 45.4614 118.744 45.3576 118.581 45.1806L110.25 35.953C109.73 35.3732 108.773 35.7455 108.773 36.5266V44.6009C108.773 45.0769 108.392 45.4553 107.926 45.4553H106.406C105.934 45.4553 105.559 45.0708 105.559 44.6009V44.607Z" fill="#585757"/>
<path d="M131.639 28.2021C133.945 28.2021 135.949 28.4524 137.783 29.8255C139.793 31.3513 140.956 33.7742 140.956 36.5449C140.956 39.3156 139.818 41.7141 137.632 43.2643C135.701 44.6374 133.891 44.8632 131.584 44.8632H128.17C127.698 44.8632 127.322 44.4788 127.322 44.0088V29.0566C127.322 28.5805 127.704 28.2021 128.17 28.2021H131.633H131.639ZM130.549 41.2076C130.549 41.6836 130.93 42.062 131.397 42.062H131.536C132.353 42.062 134.139 42.0132 135.574 40.9634C136.887 40.0114 137.632 38.3148 137.632 36.5388C137.632 34.7628 136.912 33.0906 135.598 32.0897C134.26 31.0889 132.625 30.9912 131.536 30.9912H131.397C130.924 30.9912 130.549 31.3757 130.549 31.8456V41.2015V41.2076Z" fill="#585757"/>
<path d="M167.448 37.0331L162.732 29.5143C162.375 28.9467 162.781 28.2021 163.453 28.2021H165.251C165.547 28.2021 165.82 28.3547 165.971 28.611L168.544 32.816C168.877 33.3592 169.658 33.3592 169.991 32.816L172.564 28.611C172.721 28.3608 172.994 28.2021 173.284 28.2021H175.058C175.73 28.2021 176.136 28.9528 175.772 29.5265L170.935 37.0331C170.845 37.1735 170.796 37.3322 170.796 37.497V44.0088C170.796 44.4849 170.415 44.8632 169.949 44.8632H168.429C167.957 44.8632 167.581 44.4788 167.581 44.0088V37.497C167.581 37.3322 167.533 37.1735 167.448 37.0392V37.0331Z" fill="#585757"/>
<path d="M95.7155 22.6237C95.5884 23.1852 95.3462 23.7466 95.0738 24.1128C95.0011 24.0396 94.8256 23.8992 94.7227 23.8443C94.989 23.5147 95.1888 23.0204 95.2978 22.5382L95.7155 22.6237ZM97.7617 20.091H94.8437V19.6698H96.0908V18.8765H96.5449V19.6698H97.7557V20.091H97.7617ZM96.5509 22.2026V24.0396C96.5509 24.2654 96.5146 24.3935 96.3511 24.4729C96.1877 24.54 95.9395 24.5461 95.5702 24.5461C95.546 24.4241 95.4854 24.241 95.4189 24.1311C95.6973 24.1311 95.9334 24.1311 96.0121 24.1311C96.0848 24.125 96.109 24.1067 96.109 24.0396V22.2087H95.1706V20.5792H97.4711V22.2087H96.5449L96.5509 22.2026ZM95.6065 21.8059H97.0413V20.9698H95.6065V21.8059ZM97.3016 23.6673C97.229 23.3805 97.0534 22.941 96.8778 22.6054L97.2411 22.4772C97.4348 22.8007 97.6104 23.2401 97.683 23.5208L97.3016 23.6612V23.6673ZM99.8019 24.0945C99.8685 24.0945 99.9532 24.0823 99.9956 24.0579C100.038 24.0335 100.08 23.9724 100.092 23.8931C100.105 23.7832 100.117 23.4842 100.111 23.1424C100.195 23.2218 100.353 23.295 100.462 23.3377C100.462 23.6673 100.438 24.0396 100.407 24.1799C100.365 24.3142 100.304 24.4057 100.195 24.4668C100.111 24.5095 99.9593 24.5339 99.8321 24.5339H99.4447C99.3054 24.5339 99.1541 24.5034 99.0451 24.4302C98.9422 24.3386 98.912 24.2349 98.912 23.9175V22.0439C98.7303 22.941 98.361 23.8504 97.5861 24.5888C97.5014 24.5095 97.3137 24.3752 97.1926 24.3203C98.2521 23.356 98.5306 22.0622 98.6032 20.9698H97.7314V20.5304H98.6214C98.6274 20.4144 98.6274 20.2985 98.6274 20.1947V18.8948H99.0693V20.1886C99.0693 20.2985 99.0693 20.4144 99.0693 20.5304H100.407V20.9698H99.0572C99.0572 21.0674 99.0391 21.1712 99.033 21.2749H99.3418V23.9419C99.3418 23.9969 99.3599 24.0396 99.3963 24.0579C99.4386 24.0884 99.4931 24.1006 99.5658 24.1006H99.82L99.8019 24.0945ZM99.9532 20.274C99.8382 19.975 99.5537 19.5478 99.257 19.2487L99.6081 19.0657C99.9169 19.3647 100.207 19.7797 100.341 20.0787L99.9593 20.274H99.9532Z" fill="#585757"/>
<path d="M115.293 21.7568C115.293 21.7568 115.293 21.9033 115.293 21.9704C115.214 23.5511 115.124 24.1614 114.93 24.375C114.809 24.5215 114.664 24.5581 114.446 24.5764C114.234 24.5886 113.84 24.5764 113.435 24.5581C113.422 24.4299 113.368 24.2346 113.277 24.1065C113.695 24.1431 114.119 24.1492 114.258 24.1492C114.397 24.1492 114.47 24.1492 114.53 24.082C114.664 23.9478 114.754 23.4412 114.815 22.1962H113.083C112.878 23.3741 112.333 24.1614 110.692 24.5764C110.644 24.4543 110.523 24.259 110.426 24.1675C111.903 23.8196 112.405 23.1849 112.593 22.1962H110.928V21.7629H112.66C112.684 21.4822 112.702 21.1831 112.714 20.8536H113.211C113.198 21.177 113.174 21.4822 113.144 21.7629H115.293V21.7568ZM115.759 20.2128V21.5249H115.305V20.6339H111.061V21.5249H110.613V20.2128H114.355L114.222 20.1578C114.482 19.8283 114.815 19.3095 114.996 18.9434L115.487 19.1142C115.239 19.4926 114.936 19.9137 114.682 20.2189H115.771L115.759 20.2128ZM111.6 20.2067C111.491 19.9259 111.219 19.4987 110.959 19.1936L111.346 19.0044C111.612 19.3095 111.897 19.7123 112.012 19.987L111.6 20.2067ZM113.053 20.109C112.999 19.8222 112.793 19.3706 112.593 19.0227L112.993 18.8945C113.205 19.2241 113.404 19.6696 113.483 19.9564L113.053 20.109Z" fill="#585757"/>
<path d="M130.797 21.4153C130.452 22.2819 129.889 22.9288 129.181 23.4232C129.841 23.7832 130.652 24.0274 131.578 24.1494C131.475 24.2471 131.348 24.4546 131.288 24.5827C130.289 24.4241 129.435 24.1311 128.733 23.6978C127.97 24.1189 127.092 24.3935 126.166 24.5644C126.13 24.4485 126.003 24.2288 125.918 24.1311C126.79 23.9969 127.613 23.7649 128.315 23.411C127.777 22.9899 127.353 22.465 127.038 21.8303L127.407 21.7021H126.433V21.2444H128.497V20.2863H126.154V19.8346H128.497V18.8887H128.969V19.8346H131.324V20.2863H128.969V21.2444H130.392L130.477 21.2261L130.791 21.4214L130.797 21.4153ZM127.474 21.696C127.77 22.288 128.2 22.7763 128.757 23.1607C129.344 22.7946 129.823 22.3124 130.138 21.696H127.474Z" fill="#585757"/>
<path d="M142.724 22.3793V24.0332C142.724 24.2896 142.663 24.4116 142.506 24.491C142.36 24.5642 142.13 24.5825 141.737 24.5764C141.719 24.4665 141.664 24.2773 141.604 24.1492C141.87 24.1492 142.118 24.1492 142.185 24.1492C142.258 24.1492 142.288 24.1309 142.288 24.0393V22.5319C142.021 22.6173 141.773 22.7028 141.549 22.7699L141.477 22.3183C141.707 22.2573 141.985 22.1718 142.294 22.0742V20.5667H141.525V20.1395H142.294V18.8945H142.724V20.1395H143.384V20.5667H142.724V21.9399L143.365 21.7324L143.426 22.1474L142.724 22.3854V22.3793ZM146.689 22.3366C146.501 22.9225 146.211 23.368 145.841 23.722C146.235 23.9478 146.707 24.1004 147.216 24.198C147.119 24.2896 146.998 24.4726 146.937 24.5886C146.392 24.4726 145.908 24.2773 145.49 24.0027C145.097 24.2773 144.637 24.4604 144.146 24.5825C144.098 24.4909 143.971 24.3079 143.886 24.2407C144.358 24.137 144.782 23.9783 145.145 23.7525C144.861 23.5206 144.612 23.252 144.425 22.9408C144.183 23.5755 143.819 24.1614 143.208 24.5642C143.141 24.4604 142.996 24.3079 142.893 24.2407C143.777 23.6854 144.11 22.7211 144.261 21.8179H143.42V21.4273H144.322C144.34 21.2564 144.358 21.0916 144.37 20.9329H143.559V20.5545H145.751C145.95 20.2494 146.18 19.8161 146.32 19.5109L146.75 19.6513C146.574 19.9503 146.374 20.286 146.18 20.5545H146.931V20.9329H144.812C144.8 21.0916 144.782 21.2564 144.764 21.4273H147.113V21.8179H144.703C144.685 21.9521 144.655 22.0986 144.625 22.2329H146.356L146.435 22.2206L146.695 22.3305L146.689 22.3366ZM146.816 19.2729C145.981 19.4621 144.655 19.5598 143.571 19.5903C143.559 19.4865 143.505 19.3339 143.462 19.2302C144.534 19.1936 145.835 19.0898 146.55 18.925L146.816 19.2729ZM144.092 19.6696C144.201 19.9076 144.346 20.2311 144.401 20.4264L144.025 20.5545C143.971 20.3409 143.85 20.0114 143.735 19.7612L144.092 19.6696ZM144.673 22.599C144.873 22.9469 145.151 23.252 145.496 23.5023C145.775 23.2643 145.999 22.9652 146.15 22.599H144.673ZM145 20.4813C144.982 20.2677 144.909 19.9076 144.836 19.633L145.2 19.572C145.278 19.8405 145.357 20.1884 145.387 20.3959L145 20.4813Z" fill="#585757"/>
<path d="M154.831 41.366H149.292C148.953 41.366 148.644 41.5735 148.511 41.8908L147.488 44.3381C147.355 44.6555 147.046 44.863 146.707 44.863H145.066C144.455 44.863 144.043 44.2344 144.285 43.6668L150.666 28.7146C150.799 28.3972 151.108 28.1958 151.447 28.1958H152.852C153.197 28.1958 153.505 28.4033 153.639 28.7207L159.844 43.6729C160.08 44.2344 159.668 44.863 159.057 44.863H157.428C157.089 44.863 156.781 44.6555 156.647 44.3381L155.624 41.8908C155.491 41.5735 155.182 41.366 154.843 41.366H154.831ZM152.004 38.8882C153.172 38.8882 154.123 37.93 154.123 36.7522C154.123 35.5743 153.172 34.6161 152.004 34.6161C150.836 34.6161 149.885 35.5743 149.885 36.7522C149.885 37.93 150.836 38.8882 152.004 38.8882Z" fill="#585757"/>
</svg>
